<svg version="1.0" xmlns="http://www.w3.org/2000/svg"
width="200pt" height="200pt" viewBox="0 0 1081.000000 1080.000000"
preserveAspectRatio="xMidYMid meet">
    <g transform="translate(0.000000,1080.000000) scale(0.100000,-0.100000)"
    fill="#000000" stroke="none">
    <path d="M1292 10753 c-6 -27 -15 -73 -21 -103 -16 -78 -71 -478 -71 -516 0
    -18 -5 -45 -10 -59 -6 -15 -15 -86 -21 -158 -5 -73 -14 -181 -19 -242 -5 -60
    -12 -139 -15 -175 -5 -64 -19 -390 -35 -820 -5 -118 -12 -243 -17 -278 -5 -34
    -5 -68 -1 -76 4 -7 3 -28 -2 -45 -5 -18 -10 -94 -11 -169 -1 -75 -8 -198 -15
    -272 -7 -74 -13 -198 -13 -275 -1 -77 -8 -178 -16 -225 -18 -100 -18 -120 -5
    -120 6 0 10 9 10 19 0 19 28 81 42 91 3 3 8 115 11 250 2 135 8 259 12 275 6
    27 16 273 28 725 6 231 24 496 35 516 5 11 10 80 10 154 1 133 14 313 34 480
    5 47 12 121 14 165 3 44 7 87 11 95 3 8 12 65 20 125 14 110 19 138 46 295 30
    169 45 266 52 328 7 61 7 62 -18 62 -22 0 -26 -6 -35 -47z"/>
    <path d="M1777 10673 c-2 -71 -7 -141 -10 -158 -10 -57 -11 -755 -1 -730 9 23
    26 254 33 435 3 107 10 201 14 208 5 7 11 50 13 95 5 77 7 97 18 157 3 14 7
    46 9 73 l5 47 -38 0 -38 0 -5 -127z"/>
    <path d="M3082 10773 c-6 -16 -13 -66 -16 -113 -13 -224 -25 -370 -36 -420
    -12 -59 -16 -879 -4 -1000 4 -45 1 -84 -10 -126 -11 -41 -16 -105 -16 -186 0
    -92 -4 -129 -14 -144 -10 -13 -13 -34 -9 -64 3 -25 -3 -88 -12 -140 -13 -75
    -16 -154 -15 -376 1 -218 -2 -283 -12 -291 -7 -6 -45 -11 -83 -12 -58 -2 -271
    -29 -350 -45 -116 -23 -245 -65 -245 -79 0 -5 8 -6 18 -2 16 6 227 61 276 71
    55 12 239 33 310 36 l80 3 9 -35 c6 -19 12 -78 14 -130 3 -52 8 -99 13 -105 5
    -6 10 -36 11 -68 1 -33 8 -62 16 -68 7 -6 13 -24 13 -39 0 -15 16 -57 35 -94
    19 -37 35 -74 35 -82 0 -8 3 -14 8 -14 4 0 17 -22 30 -50 12 -27 27 -52 32
    -55 6 -3 10 -14 10 -24 0 -10 7 -24 15 -31 12 -10 15 -10 15 1 0 18 -24 86
    -33 95 -4 4 -7 14 -7 22 0 8 -6 28 -14 45 -13 31 -57 173 -76 247 -5 19 -16
    78 -25 130 -9 52 -20 111 -26 131 -5 20 -9 57 -9 83 l0 47 93 -3 92 -3 17 -50
    c9 -27 20 -59 23 -70 4 -11 7 -23 6 -27 -1 -9 27 -93 44 -133 7 -16 26 -66 41
    -110 15 -44 32 -91 39 -105 7 -14 25 -54 41 -90 15 -36 35 -73 43 -82 8 -10
    11 -18 7 -18 -4 0 2 -13 13 -29 12 -16 21 -33 21 -39 0 -5 7 -15 15 -22 12
    -10 15 -9 15 4 0 10 -4 14 -10 11 -6 -4 -10 7 -10 24 0 17 -4 31 -10 31 -5 0
    -10 5 -10 12 0 6 -9 30 -19 52 -52 112 -81 189 -81 219 0 9 -3 17 -8 17 -8 0
    -29 69 -39 128 -3 18 -9 35 -14 38 -5 3 -9 16 -9 30 0 13 -4 32 -9 42 -17 31
    -43 143 -37 158 5 13 26 14 128 9 68 -3 170 -7 228 -9 154 -6 61 10 -145 24
    -226 15 -229 16 -233 63 -2 21 -7 35 -13 32 -5 -4 -9 14 -9 40 0 26 -5 56 -12
    68 -7 12 -16 49 -20 82 -4 33 -12 87 -18 120 -6 33 -13 87 -14 121 -2 33 -8
    83 -14 110 -6 27 -16 87 -22 134 -19 154 -21 165 -30 185 -9 20 -13 80 -28
    450 -11 286 0 1001 16 1017 7 7 12 41 12 93 0 44 5 96 10 115 6 19 13 64 16
    100 3 36 10 69 15 75 5 5 9 28 9 52 0 39 -2 43 -24 43 -16 0 -27 -8 -34 -27z
    m-33 -1986 c0 -12 -3 -16 -6 -9 -2 6 -9 10 -14 6 -11 -6 -11 -2 -3 20 8 22 24
    10 23 -17z m12 -157 c1 -47 6 -91 12 -98 5 -6 7 -30 3 -51 -4 -27 -2 -42 8
    -51 9 -7 17 -41 22 -91 3 -44 11 -82 15 -85 5 -3 9 -34 9 -70 0 -36 4 -64 10
    -64 6 0 10 -13 10 -29 0 -16 7 -57 16 -91 9 -34 12 -66 7 -70 -4 -4 -42 -10
    -84 -12 l-77 -3 -7 230 c-9 294 -8 298 30 306 23 5 25 7 8 8 -29 1 -35 28 -28
    106 3 33 5 80 5 104 -1 42 16 70 32 53 4 -4 8 -45 9 -92z"/>
    <path d="M4287 10733 c-3 -38 -9 -86 -12 -108 -5 -34 -23 -452 -26 -610 -5
    -228 25 -893 41 -933 6 -13 10 -67 10 -120 0 -54 4 -102 9 -108 8 -8 19 -102
    25 -216 1 -26 5 -50 9 -54 4 -4 7 -29 7 -55 0 -26 4 -59 10 -73 8 -21 6 -26
    -10 -31 -23 -7 -27 -25 -5 -25 20 0 22 -82 12 -465 -4 -170 -5 -359 -2 -420
    11 -241 14 -278 25 -289 5 -5 10 -24 10 -41 0 -45 34 -202 68 -315 l20 -65 1
    47 c1 26 -4 59 -9 73 -6 15 -13 48 -15 73 -3 26 -8 55 -11 64 -12 40 -13 103
    -1 110 9 6 6 18 -11 49 -20 34 -23 54 -23 122 0 45 -3 125 -7 177 -4 52 -6
    154 -6 225 3 340 3 335 19 335 11 0 15 -11 15 -37 0 -21 5 -56 11 -78 12 -46
    14 -54 29 -155 7 -41 19 -89 26 -107 8 -17 14 -49 14 -72 0 -23 4 -41 9 -41 5
    0 11 -21 14 -47 9 -73 22 -138 54 -253 50 -179 67 -230 76 -230 11 0 0 87 -14
    112 -5 9 -9 31 -9 47 0 17 -4 39 -9 49 -13 23 -41 151 -41 184 0 15 -4 30 -10
    33 -5 3 -10 26 -10 51 0 25 -5 54 -11 65 -5 11 -12 42 -14 70 -3 27 -9 58 -15
    69 -5 10 -10 39 -10 64 0 25 -4 48 -10 51 -5 3 -10 31 -10 61 0 30 -4 62 -9
    72 -14 27 -42 170 -59 302 -5 36 -12 72 -16 81 -4 10 -3 20 3 24 8 4 8 12 1
    25 -6 10 -12 54 -15 97 -3 43 -10 110 -15 148 -5 39 -14 138 -19 220 -6 83
    -15 169 -21 193 -5 23 -8 88 -5 145 2 56 -2 165 -9 242 -15 163 -12 929 6
    1110 5 61 12 136 15 168 l5 57 -34 0 -35 0 -6 -67z"/>
    <path d="M7502 10753 c8 -87 -11 -1116 -23 -1228 -6 -60 -17 -189 -24 -285
    -16 -205 -31 -310 -45 -324 -13 -13 -13 -93 0 -101 17 -10 11 -120 -10 -187
    -12 -39 -20 -91 -20 -137 0 -62 -3 -77 -20 -91 -13 -11 -17 -21 -10 -25 12 -8
    12 -208 -1 -285 -5 -30 -12 -86 -15 -125 -4 -38 -10 -75 -15 -81 -5 -6 -14
    -42 -20 -80 -22 -140 -26 -160 -43 -214 -10 -30 -29 -91 -42 -135 -14 -44 -29
    -89 -33 -100 -5 -11 -14 -38 -21 -60 -7 -22 -18 -53 -25 -70 -21 -47 -85 -242
    -85 -257 0 -7 -23 -76 -51 -153 -54 -146 -61 -168 -59 -173 1 -2 -6 -14 -15
    -28 -9 -14 -15 -33 -13 -42 4 -18 68 108 68 134 0 8 5 14 10 14 6 0 10 7 10
    15 0 8 13 43 28 77 34 74 52 128 52 151 0 9 4 17 10 17 5 0 13 18 16 40 4 22
    10 40 15 40 5 0 9 12 9 26 0 14 6 38 14 52 8 15 26 68 40 117 15 50 32 104 38
    120 6 17 13 45 15 63 3 17 9 32 14 32 5 0 9 15 9 33 0 17 7 45 15 61 8 15 15
    41 15 56 0 15 7 47 15 70 8 23 15 60 15 80 0 21 4 40 9 42 8 3 16 39 40 203 4
    28 13 79 20 115 28 148 41 228 46 275 2 28 9 77 15 110 5 33 10 92 10 131 0
    38 4 74 10 80 5 5 12 59 15 119 3 61 12 144 20 186 8 42 15 144 16 225 1 82 8
    199 15 259 14 118 21 329 29 879 6 379 3 406 -43 406 -22 0 -24 -3 -20 -47z"/>
    <path d="M8256 10633 c13 -245 8 -1209 -6 -1308 -7 -44 -15 -136 -19 -205 -4
    -69 -11 -131 -15 -139 -5 -8 -13 -51 -18 -95 -5 -45 -10 -97 -13 -116 -17
    -141 -25 -191 -34 -232 -6 -25 -13 -86 -17 -135 -3 -48 -10 -92 -15 -97 -5 -6
    -9 -36 -9 -67 0 -31 -7 -76 -15 -99 -8 -23 -15 -55 -15 -71 0 -15 -4 -31 -10
    -34 -5 -3 -10 -25 -10 -48 -1 -23 -7 -53 -15 -67 -8 -14 -14 -35 -15 -48 0
    -14 -8 -26 -22 -31 -20 -8 -21 -10 -6 -16 16 -6 16 -10 3 -35 -8 -16 -18 -30
    -23 -32 -10 -4 -55 -68 -51 -73 2 -2 15 12 29 31 25 34 40 43 40 24 0 -5 -4
    -10 -10 -10 -5 0 -10 -17 -10 -37 0 -21 -7 -47 -15 -57 -8 -11 -15 -32 -15
    -47 0 -15 -4 -29 -9 -31 -5 -1 -12 -21 -15 -43 -4 -22 -11 -41 -16 -43 -6 -2
    -10 -18 -10 -35 0 -18 -7 -41 -15 -51 -8 -11 -15 -35 -15 -53 0 -18 -4 -33
    -10 -33 -5 0 -10 -10 -10 -23 0 -13 -7 -32 -15 -43 -8 -10 -15 -31 -15 -46 0
    -16 -4 -28 -10 -28 -5 0 -10 -7 -10 -16 0 -9 -7 -31 -15 -50 -8 -19 -22 -49
    -30 -68 -8 -19 -15 -41 -15 -50 0 -9 -4 -16 -10 -16 -5 0 -10 -5 -10 -11 0 -6
    -13 -40 -30 -76 -16 -35 -30 -69 -30 -74 0 -5 -4 -9 -10 -9 -5 0 -10 -8 -10
    -19 0 -10 -7 -24 -15 -31 -8 -7 -15 -19 -15 -26 0 -8 -4 -14 -9 -14 -5 0 -11
    -8 -15 -17 -3 -10 -19 -42 -36 -72 -54 -93 -18 -73 52 30 60 88 198 355 198
    383 0 5 9 28 20 50 27 57 90 218 90 232 0 7 7 25 15 40 8 16 15 36 15 45 0 9
    3 19 7 23 4 4 13 26 19 49 37 133 55 194 64 212 4 11 11 37 15 59 12 70 34
    104 72 108 18 2 36 2 38 -1 3 -2 5 -36 5 -75 0 -50 3 -66 10 -56 5 8 10 37 10
    63 0 86 -7 84 217 92 315 13 427 12 609 -1 194 -15 267 -26 374 -55 109 -29
    172 -46 200 -54 20 -5 22 -4 10 4 -24 18 -205 71 -293 87 -304 54 -435 58
    -1024 30 -46 -2 -73 1 -76 8 -2 6 3 97 10 201 7 105 12 242 9 305 -2 63 0 138
    4 165 5 28 12 86 15 130 3 43 10 84 14 90 4 5 9 46 10 90 2 95 4 105 16 125 5
    8 12 96 15 195 4 120 11 190 20 210 21 45 19 984 -2 1070 -8 33 -16 98 -17
    145 -2 133 -11 190 -29 190 -13 0 -14 -20 -6 -167z m-86 -2562 c0 -153 -3
    -191 -15 -201 -33 -27 -93 -14 -76 18 4 9 11 42 15 72 4 30 11 69 16 85 32
    111 40 147 42 183 1 23 5 39 10 36 4 -3 8 -90 8 -193z"/>
    <path d="M9831 10763 c2 -21 6 -40 10 -43 4 -3 8 -41 10 -85 2 -44 8 -83 13
    -86 9 -7 20 -84 35 -241 5 -54 13 -103 17 -109 3 -6 6 -46 5 -88 -1 -42 4 -92
    9 -111 6 -19 16 -73 21 -120 5 -47 14 -116 20 -155 6 -38 13 -128 15 -200 3
    -71 9 -134 15 -140 5 -5 9 -35 9 -66 0 -33 5 -61 11 -65 13 -8 7 322 -11 571
    -6 77 -13 186 -16 243 -4 56 -11 105 -15 108 -5 3 -9 52 -9 110 0 57 -4 104
    -8 104 -5 0 -10 30 -11 67 -1 37 -4 70 -7 75 -8 12 -15 49 -19 95 -2 23 -8 51
    -14 62 -6 11 -11 40 -11 65 l0 46 -36 0 c-35 0 -35 -1 -33 -37z"/>
    <path d="M10477 10663 c-6 -9 16 -165 33 -238 7 -27 16 -88 21 -135 5 -47 13
    -121 19 -165 6 -44 15 -123 19 -175 5 -52 13 -120 19 -150 15 -77 26 -308 28
    -560 0 -118 6 -255 13 -305 7 -51 15 -292 18 -558 3 -257 10 -470 15 -473 4
    -3 8 -61 8 -130 0 -69 5 -134 10 -144 6 -11 13 -50 16 -87 4 -37 10 -76 15
    -85 5 -9 9 -44 9 -77 0 -34 4 -61 10 -61 6 0 10 -12 10 -26 0 -14 4 -33 9 -42
    5 -9 11 -35 14 -57 5 -45 25 -130 38 -160 5 -13 8 9 8 59 1 74 -3 98 -31 181
    -5 17 -11 59 -14 94 -2 35 -8 69 -13 75 -5 6 -12 45 -15 86 -4 41 -11 93 -16
    115 -10 44 -20 242 -26 540 -3 105 -8 231 -13 280 -4 50 -6 181 -4 293 3 111
    2 210 -2 220 -13 29 -14 49 -15 269 0 117 -6 277 -13 355 -8 79 -14 154 -15
    168 0 14 -5 70 -11 125 -5 55 -15 152 -21 215 -6 63 -15 134 -20 158 -6 23
    -10 68 -10 100 0 32 -4 62 -9 68 -5 5 -12 50 -16 99 -3 50 -7 100 -8 113 -2
    17 -8 22 -29 22 -15 0 -29 -3 -31 -7z"/>
    <path d="M1743 9605 c0 -38 2 -53 4 -32 2 20 2 52 0 70 -2 17 -4 1 -4 -38z"/>
    <path d="M6661 9230 c-1 -25 -4 -83 -6 -130 -2 -47 -7 -158 -9 -248 -3 -89
    -10 -171 -16 -181 -5 -11 -10 -62 -10 -113 0 -51 -7 -124 -15 -163 -8 -38 -15
    -115 -16 -170 0 -55 -4 -131 -10 -170 -7 -55 -22 -196 -31 -292 -1 -7 -5 -13
    -9 -13 -4 0 -9 -21 -12 -47 -3 -27 -13 -79 -21 -118 -9 -38 -22 -98 -28 -132
    -7 -35 -16 -63 -20 -63 -4 0 -8 -12 -8 -26 0 -25 -15 -76 -47 -167 -7 -20 -13
    -49 -13 -62 0 -14 -4 -25 -10 -25 -5 0 -10 -10 -10 -23 0 -19 -41 -138 -69
    -202 -5 -11 -12 -29 -15 -40 -3 -11 -16 -51 -30 -90 -14 -38 -25 -78 -26 -87
    0 -10 -4 -18 -9 -18 -11 0 -20 -59 -11 -65 7 -5 70 126 70 145 0 6 4 18 9 28
    5 9 17 40 26 67 9 28 23 64 31 82 8 17 14 40 14 52 0 12 5 21 10 21 6 0 10 12
    10 28 0 15 7 40 15 56 8 15 15 39 15 52 0 13 4 24 9 24 5 0 12 22 16 50 4 27
    11 52 16 56 5 3 9 22 9 42 0 20 7 50 15 66 8 15 15 45 15 65 0 20 4 41 10 47
    5 5 12 36 16 69 4 33 10 62 14 65 9 7 50 265 51 322 0 10 4 20 10 23 5 4 9 48
    9 99 0 51 3 96 7 100 11 11 14 35 23 186 5 80 13 177 19 215 6 39 11 109 11
    157 0 47 7 148 15 224 9 75 13 156 10 178 -4 23 -10 70 -14 106 -7 59 -8 61
    -10 20z"/>
    <path d="M7336 9229 c-3 -17 -6 -75 -6 -128 -1 -53 -5 -127 -11 -166 -11 -74
    -14 -101 -29 -235 -10 -96 -28 -198 -37 -213 -3 -5 -7 -30 -9 -56 -1 -25 -7
    -64 -14 -86 -6 -22 -15 -62 -20 -90 -20 -110 -32 -160 -41 -170 -5 -5 -9 -23
    -9 -40 0 -17 -5 -36 -11 -42 -6 -6 -14 -26 -19 -44 -5 -19 -18 -59 -29 -89
    -12 -30 -21 -62 -21 -71 0 -9 -7 -19 -15 -23 -9 -3 -15 -18 -15 -35 0 -16 -4
    -32 -9 -36 -5 -3 -12 -19 -16 -35 -4 -17 -11 -30 -16 -30 -5 0 -9 -16 -9 -35
    0 -19 -4 -35 -8 -35 -4 0 -14 -20 -21 -44 -7 -25 -21 -61 -32 -80 -10 -20 -19
    -44 -19 -55 0 -10 -7 -21 -15 -25 -8 -3 -14 -9 -13 -14 3 -9 -70 -158 -87
    -179 -5 -7 -16 -19 -22 -27 -7 -8 -13 -22 -13 -30 0 -7 -7 -16 -15 -20 -8 -3
    -15 -10 -15 -16 0 -6 -11 -23 -25 -38 -14 -15 -25 -32 -25 -39 0 -7 -3 -13 -7
    -13 -5 0 -24 -27 -43 -60 -19 -33 -38 -60 -42 -60 -5 0 -8 -6 -8 -13 0 -7 -10
    -23 -23 -37 -53 -58 -106 -150 -86 -150 11 0 58 50 59 62 0 4 27 43 60 87 33
    44 60 83 60 86 0 6 4 12 52 70 48 58 98 132 98 144 0 6 4 11 8 11 10 0 178
    335 227 455 17 40 48 134 49 147 1 4 7 13 14 20 6 6 12 24 12 39 0 15 5 29 11
    31 5 2 13 24 16 48 3 25 9 47 12 50 9 7 41 124 41 149 0 11 4 21 9 23 5 2 12
    30 16 63 3 33 10 62 14 65 5 3 11 23 15 45 4 22 15 55 23 73 8 17 13 42 10 54
    -7 26 19 112 39 129 16 13 19 39 5 39 -5 0 -12 -6 -14 -12 -3 -8 -6 -5 -6 6
    -1 10 10 31 24 48 14 16 25 40 25 53 0 12 7 28 15 35 11 9 15 31 14 79 0 46
    -3 60 -9 46 -5 -11 -9 -34 -9 -52 -1 -17 -8 -38 -16 -47 -8 -8 -15 -24 -15
    -35 0 -12 -5 -21 -11 -21 -8 0 -10 16 -4 53 4 28 10 88 15 132 4 44 13 139 20
    210 12 125 9 205 -9 205 -5 0 -11 -14 -15 -31z"/>
    <path d="M1760 8984 c0 -49 5 -96 10 -104 6 -10 7 19 3 85 -3 55 -7 102 -9
    104 -2 2 -4 -36 -4 -85z"/>
    <path d="M10027 8793 c-6 -62 -10 -79 -20 -103 -4 -8 -9 -71 -11 -140 -4 -143
    -23 -339 -36 -390 -6 -19 -10 -67 -10 -106 0 -39 -7 -91 -15 -114 -8 -23 -15
    -67 -15 -97 0 -30 -5 -63 -10 -74 -6 -10 -13 -48 -17 -84 -3 -36 -9 -65 -14
    -65 -4 0 -9 -28 -11 -62 -2 -35 -10 -85 -17 -113 -30 -121 -35 -143 -39 -187
    -2 -27 -8 -48 -13 -48 -5 0 -9 -15 -9 -34 0 -19 -5 -47 -11 -63 -6 -15 -13
    -41 -15 -58 -4 -27 -27 -108 -42 -145 -6 -16 -8 -24 -18 -78 -4 -23 -14 -36
    -30 -42 -31 -12 -30 -18 2 -30 32 -13 49 -4 33 16 -9 11 -9 18 -1 26 7 7 12
    20 12 30 0 10 11 41 25 70 14 28 25 57 25 64 0 6 7 25 15 40 8 16 15 43 15 59
    0 17 7 43 15 59 8 15 15 38 15 50 0 12 5 27 10 32 6 6 13 34 17 62 3 29 10 52
    14 52 5 0 9 -3 10 -7 5 -79 13 -130 20 -137 5 -6 9 -25 9 -42 0 -18 5 -36 10
    -39 6 -3 10 -19 10 -35 0 -16 5 -32 10 -35 6 -3 10 -13 10 -22 0 -8 7 -30 15
    -49 8 -19 22 -50 31 -69 27 -62 18 -77 -57 -95 -36 -10 -79 -25 -96 -35 -26
    -15 -36 -16 -63 -6 -43 15 -54 4 -12 -11 39 -15 40 -25 5 -39 -39 -15 -45 -14
    -168 15 -60 14 -146 31 -190 37 -161 22 -775 15 -955 -10 -191 -28 -231 -35
    -315 -58 -82 -22 -116 -35 -213 -80 -23 -11 -47 -14 -80 -9 -71 9 -73 9 -137
    8 l-60 -2 47 -25 c26 -14 54 -25 62 -25 29 0 26 -19 -6 -36 -74 -38 -249 -175
    -344 -270 -55 -56 -132 -125 -170 -154 -38 -30 -73 -57 -78 -62 -15 -12 53 9
    104 33 25 11 61 28 80 36 19 8 56 26 83 40 26 13 47 21 47 16 0 -5 -22 -36
    -50 -70 -27 -34 -50 -65 -50 -68 0 -4 -13 -24 -29 -44 -15 -20 -59 -90 -97
    -156 -38 -66 -72 -121 -76 -123 -5 -2 -8 -9 -8 -16 0 -7 -9 -21 -20 -31 -10
    -9 -24 -33 -30 -51 -7 -19 -16 -34 -21 -34 -5 0 -9 -7 -9 -15 0 -8 -4 -15 -10
    -15 -5 0 -13 -12 -16 -27 -4 -16 -12 -31 -18 -35 -23 -15 4 -19 31 -4 15 8 64
    25 108 37 84 22 178 82 190 120 4 10 11 19 16 19 5 0 9 6 9 14 0 8 4 16 8 18
    4 2 29 35 54 73 26 39 59 84 74 100 14 17 38 46 53 65 14 19 28 37 31 40 3 3
    22 26 43 51 36 44 119 100 132 87 3 -3 -3 -21 -14 -40 -51 -86 -148 -433 -171
    -611 -13 -100 -9 -262 9 -372 18 -106 39 -219 49 -255 11 -43 81 -190 90 -190
    4 0 22 9 40 20 41 25 83 26 113 1 l23 -18 -50 -36 c-27 -20 -55 -37 -61 -37
    -33 0 7 -55 72 -99 46 -31 116 -56 136 -48 10 4 8 6 -4 6 -18 1 -70 26 -92 45
    -14 12 -2 118 20 170 18 43 17 46 -17 50 -13 1 -30 6 -37 10 -7 5 -25 12 -39
    16 -16 5 -20 9 -9 9 25 1 21 34 -5 46 -16 7 -26 26 -36 68 -9 35 -18 54 -22
    47 -15 -24 -27 20 -19 66 6 31 4 51 -6 71 -8 15 -15 24 -16 18 -1 -5 -5 1 -9
    15 -10 32 -12 164 -2 174 4 4 7 26 8 49 1 56 21 208 29 230 4 9 3 17 -2 17
    -18 0 -7 50 15 65 12 9 20 21 17 26 -3 5 1 6 9 3 12 -5 16 0 16 19 0 14 11 38
    25 53 14 15 24 29 22 31 -2 2 -29 -8 -60 -23 -84 -38 -91 -33 -95 53 -2 57 2
    81 19 118 30 64 55 78 129 73 66 -5 95 -24 105 -68 4 -17 15 -31 28 -35 20 -6
    20 -8 4 -12 -15 -4 -18 -11 -13 -38 6 -30 -1 -67 -40 -215 -37 -141 -36 -344
    2 -454 8 -21 14 -48 14 -60 0 -11 7 -34 15 -50 8 -15 15 -34 15 -40 0 -30 78
    -161 108 -182 27 -19 86 -21 107 -4 18 15 165 21 240 9 33 -5 89 -21 125 -34
    36 -14 70 -25 75 -25 14 0 125 105 125 118 0 5 7 15 15 22 17 14 75 133 75
    153 0 7 6 21 14 32 30 43 56 188 57 311 0 133 -6 288 -13 301 -3 4 -3 29 0 56
    3 37 8 47 21 45 18 -3 41 -22 41 -35 0 -5 9 -16 20 -26 12 -10 20 -29 20 -47
    0 -18 4 -29 10 -25 6 3 10 -2 10 -12 0 -10 10 -23 23 -28 15 -7 22 -19 23 -40
    1 -16 5 -67 9 -113 7 -75 10 -83 26 -79 26 7 82 -33 93 -66 7 -20 6 -36 -7
    -63 -15 -32 -21 -35 -51 -33 -47 4 -67 -14 -56 -52 7 -22 4 -40 -8 -65 -12
    -27 -14 -39 -5 -53 9 -14 8 -21 -2 -32 -8 -8 -25 -43 -38 -79 -19 -50 -28 -64
    -42 -62 -12 2 -16 -1 -12 -10 7 -19 -13 -43 -43 -53 -40 -13 -65 -45 -35 -45
    18 0 20 -17 3 -22 -6 -2 4 -10 23 -17 19 -7 42 -17 53 -23 10 -5 22 -6 26 -1
    18 21 120 183 140 223 38 75 100 259 117 345 20 107 29 490 13 610 -6 50 -14
    118 -17 153 -6 70 -18 80 -27 24 -6 -39 -39 -78 -85 -102 -34 -18 -119 -5
    -173 25 -68 38 -83 61 -79 115 2 29 76 98 117 109 43 11 157 1 192 -18 12 -6
    22 -7 24 -1 4 10 178 -19 284 -49 72 -20 196 -76 202 -92 2 -5 10 -9 17 -9 7
    0 15 -7 19 -15 3 -8 12 -15 21 -15 13 0 14 4 5 20 -39 74 121 -69 171 -152 13
    -21 34 -54 46 -71 13 -18 39 -66 59 -107 19 -41 40 -76 45 -78 17 -7 9 -20
    -10 -15 -17 4 -18 -6 -24 -139 -3 -79 -11 -165 -17 -193 -49 -200 -96 -311
    -190 -450 -71 -107 -98 -141 -137 -180 -18 -18 -33 -37 -33 -44 0 -6 -7 -11
    -15 -11 -8 0 -15 -7 -15 -16 0 -8 -4 -13 -9 -10 -5 3 -11 -3 -14 -14 -3 -13
    -14 -20 -28 -20 -16 0 -20 -3 -12 -11 12 -12 76 19 154 76 27 19 56 35 64 35
    12 0 45 15 182 84 13 6 23 14 23 19 0 4 7 7 16 7 8 0 90 73 180 162 91 90 167
    165 170 168 3 3 2 -8 -2 -24 -5 -23 -4 -27 7 -21 8 5 4 -3 -9 -17 -12 -13 -19
    -28 -15 -32 6 -6 53 40 53 53 0 3 18 26 40 51 38 42 44 54 41 73 -1 5 2 6 7 3
    10 -6 72 108 72 130 0 8 5 14 10 14 27 0 4 47 -54 108 -36 37 -62 68 -57 70 4
    1 36 -7 70 -18 35 -11 76 -20 91 -20 50 0 54 -14 46 -203 -4 -95 -11 -217 -16
    -272 -5 -55 -10 -158 -10 -230 0 -71 -5 -148 -10 -170 -5 -22 -12 -107 -15
    -190 -3 -82 -10 -168 -15 -190 -5 -22 -10 -77 -10 -122 0 -81 0 -82 -37 -117
    -21 -20 -44 -36 -50 -36 -7 0 -13 -4 -13 -9 0 -5 -8 -12 -18 -15 -11 -4 -25
    -26 -34 -57 -12 -35 -13 -49 -5 -46 7 2 14 17 17 33 3 16 10 29 15 30 25 1
    105 49 105 63 0 8 3 11 7 8 10 -10 4 -90 -7 -101 -6 -6 -10 -58 -10 -118 l0
    -107 -30 -16 c-16 -8 -35 -15 -43 -15 -7 0 -36 -11 -63 -25 -27 -14 -50 -25
    -51 -25 -2 0 -3 10 -4 23 -1 17 -3 15 -8 -9 -4 -17 -11 -36 -15 -42 -11 -18
    13 -14 42 6 15 11 42 25 60 33 17 8 32 17 32 20 0 3 6 6 13 7 6 1 23 3 37 4
    24 3 25 0 23 -42 -3 -107 -16 -246 -23 -255 -4 -5 -11 -59 -15 -120 -3 -60
    -11 -117 -16 -126 -13 -26 -106 -46 -229 -48 l-65 -1 -49 -148 c-27 -81 -59
    -171 -72 -199 -13 -29 -39 -92 -57 -140 -54 -140 -217 -453 -260 -501 -11 -12
    -16 -22 -11 -22 5 0 4 -4 -2 -8 -5 -4 -52 -59 -103 -122 -100 -124 -205 -235
    -297 -315 -32 -27 -73 -65 -92 -83 -19 -18 -40 -36 -47 -40 -7 -4 -28 -19 -46
    -34 -19 -15 -83 -66 -144 -113 -60 -47 -123 -96 -140 -109 -87 -69 -493 -331
    -645 -418 -96 -55 -206 -119 -245 -142 -38 -22 -83 -48 -100 -57 -16 -9 -79
    -43 -140 -76 -231 -125 -270 -146 -280 -153 -5 -4 -37 -22 -70 -40 -160 -86
    -191 -103 -200 -111 -5 -5 -15 -9 -22 -9 -7 0 -32 -12 -56 -27 -23 -15 -58
    -35 -77 -45 l-35 -17 58 -1 c37 0 57 4 57 12 0 6 3 9 6 5 3 -3 16 3 28 14 11
    11 33 23 49 26 15 3 27 9 27 14 0 5 9 9 20 9 11 0 20 4 20 9 0 5 10 11 23 15
    12 3 45 20 72 37 67 44 174 99 191 99 8 0 14 4 14 9 0 9 23 20 45 21 6 1 19 9
    30 19 23 20 107 61 124 61 8 0 9 -5 1 -19 -5 -11 -10 -36 -10 -55 0 -20 -4
    -36 -9 -36 -12 0 -48 -120 -57 -187 l-7 -53 984 0 c541 0 989 4 994 8 15 11
    55 70 55 81 0 5 4 11 8 13 10 4 92 135 92 147 0 5 4 11 8 13 5 2 32 53 61 113
    29 61 57 117 62 125 5 8 18 35 29 60 12 25 26 55 32 67 6 13 8 26 3 30 -4 5
    -10 2 -12 -5 -3 -7 -11 -19 -19 -26 -8 -8 -14 -18 -14 -21 0 -4 -16 -26 -35
    -49 -19 -24 -35 -46 -35 -49 0 -12 -46 -53 -75 -67 -16 -8 -34 -20 -40 -26
    -16 -18 -195 -134 -207 -134 -5 0 -22 -6 -36 -14 -81 -42 -136 -66 -154 -66
    -10 0 -29 -5 -41 -12 -22 -12 -40 -16 -182 -39 -85 -14 -341 -7 -358 10 -8 8
    2 11 40 11 27 0 63 4 79 9 16 5 73 19 127 31 53 12 100 26 103 31 3 5 18 9 34
    9 16 0 31 4 34 9 3 5 18 12 33 16 16 3 50 17 76 31 27 13 53 24 58 24 9 0 219
    128 229 140 3 3 32 27 65 52 76 58 240 227 286 293 19 28 36 52 39 55 3 3 23
    28 45 55 22 28 50 61 63 75 13 14 35 50 48 80 14 30 29 63 34 72 6 10 10 31
    10 47 0 16 5 31 12 33 6 2 13 19 14 37 1 18 7 38 13 44 6 6 11 23 11 38 0 15
    5 31 10 34 6 3 10 21 10 38 0 18 7 45 15 61 8 15 15 39 15 51 0 12 7 36 15 51
    8 16 15 37 15 46 0 10 20 44 45 77 43 56 77 79 130 86 30 5 185 82 220 110 42
    34 23 43 -25 11 -22 -14 -46 -26 -55 -26 -8 0 -15 -4 -15 -10 0 -5 -7 -10 -15
    -10 -13 0 -46 -13 -112 -43 -32 -15 -39 -2 -13 25 12 13 31 40 43 61 11 20 24
    37 27 37 4 0 15 18 25 40 10 22 22 40 27 40 4 0 8 5 8 10 0 6 11 28 25 50 14
    22 25 46 25 55 0 8 5 15 10 15 6 0 10 7 10 15 0 8 5 15 10 15 6 0 10 12 10 28
    -1 27 -1 27 -18 -8 -10 -19 -35 -61 -57 -94 -22 -32 -48 -70 -57 -84 -9 -14
    -47 -58 -85 -97 -37 -40 -104 -117 -148 -171 -86 -107 -233 -246 -323 -307
    -80 -53 -340 -181 -442 -218 -81 -29 -270 -72 -279 -64 -8 9 9 35 23 35 43 0
    245 115 312 177 17 16 44 39 59 51 132 104 301 274 365 368 20 29 133 176 145
    190 6 6 28 37 50 70 22 32 43 61 46 64 3 3 18 28 34 55 15 28 32 56 37 63 26
    31 137 252 174 344 10 27 22 48 27 48 4 0 7 14 7 30 0 17 3 30 8 30 10 0 42
    91 42 119 0 12 7 36 16 52 8 17 13 36 11 43 -3 6 1 20 9 31 8 10 14 28 14 39
    0 11 4 33 10 50 37 120 52 186 56 256 l3 55 -9 -49 c-5 -27 -14 -54 -19 -59
    -6 -6 -11 -19 -11 -30 0 -22 -25 -105 -51 -169 -10 -26 -19 -58 -19 -72 0 -14
    -4 -26 -10 -26 -5 0 -10 -5 -10 -10 0 -6 -9 -30 -20 -52 -11 -23 -20 -49 -20
    -58 0 -9 -7 -25 -15 -36 -8 -10 -15 -29 -15 -41 0 -13 -4 -23 -10 -23 -5 0
    -10 -9 -10 -21 0 -11 -5 -17 -10 -14 -6 4 -8 11 -4 16 6 11 10 48 20 189 3 47
    10 88 16 91 6 4 13 56 17 117 3 60 3 108 -1 105 -5 -2 -8 0 -8 6 0 5 5 11 11
    13 7 2 15 53 20 126 4 67 13 131 19 143 7 12 11 63 10 127 -2 72 3 124 13 159
    9 33 15 96 16 169 0 77 4 120 12 124 8 6 7 9 -2 13 -11 4 -12 7 -1 18 8 9 12
    57 13 159 1 80 5 156 9 170 7 23 8 23 10 -10 2 -34 3 -34 10 10 4 25 3 53 -2
    63 -6 13 -5 17 7 17 8 0 15 5 15 10 0 6 -4 10 -10 10 -13 0 -13 41 0 74 6 17
    6 35 -1 54 -13 33 -21 581 -12 802 6 139 8 152 19 125 l13 -30 2 30 c1 29 1
    30 9 5 4 -14 8 108 9 270 0 256 -2 298 -15 315 -16 19 -16 19 -10 -8 5 -19 3
    -26 -4 -22 -6 3 -10 41 -9 88 0 55 3 75 9 62 9 -20 9 -20 9 1 1 11 7 26 14 34
    10 12 9 12 -4 2 -14 -10 -17 -9 -22 7 -4 15 0 19 14 16 14 -3 19 2 19 20 0 16
    -25 49 -78 104 -43 44 -87 98 -98 120 -10 23 -22 41 -26 41 -5 0 -8 6 -8 14 0
    8 -8 29 -17 48 -31 61 -33 68 -33 87 0 11 -4 22 -9 25 -4 3 -9 -20 -10 -52 0
    -31 -6 -72 -12 -91 -7 -21 -9 -58 -5 -95 4 -34 10 -83 13 -111 3 -27 10 -55
    15 -62 21 -27 -4 -33 -34 -8 -16 14 -33 25 -36 25 -4 0 -24 15 -46 34 -23 21
    -45 33 -55 29 -14 -4 -14 -3 -1 6 12 9 10 15 -16 43 -67 71 -84 91 -84 104 0
    8 -4 14 -10 14 -5 0 -10 5 -10 12 0 6 -11 34 -24 62 -33 71 -76 229 -76 281 0
    14 -4 25 -10 25 -5 0 -10 -7 -10 -16 0 -35 31 -210 40 -226 6 -10 10 -22 10
    -28 0 -6 16 -44 36 -86 38 -78 39 -100 3 -68 -22 20 -96 113 -114 144 -6 10
    -16 24 -22 32 -13 15 -82 172 -87 197 -2 9 -8 29 -14 44 -7 16 -12 39 -12 52
    0 13 -4 26 -8 29 -5 3 -10 36 -11 73 -1 37 -6 72 -12 78 -14 14 -12 388 3 403
    6 6 15 55 19 109 8 94 19 194 39 353 5 41 12 140 16 220 3 80 11 151 17 158
    10 13 13 339 3 349 -2 2 -7 -22 -9 -54z m88 -2125 c10 -18 28 -42 40 -53 12
    -11 20 -26 18 -32 -3 -7 0 -13 7 -13 6 0 21 -9 33 -21 12 -12 50 -35 85 -51
    34 -17 61 -32 59 -34 -1 -2 -20 2 -42 8 -22 6 -62 13 -89 15 -34 4 -71 19
    -129 54 -44 27 -75 49 -69 49 6 0 17 19 23 43 13 43 26 67 38 67 4 0 15 -14
    26 -32z m492 -101 c14 -23 43 -63 64 -88 l39 -47 0 -93 c0 -52 -4 -89 -8 -84
    -4 6 -25 23 -47 39 -22 17 -50 40 -63 52 -21 21 -22 23 -6 32 17 9 17 11 1 27
    -9 9 -17 27 -17 41 0 13 -4 24 -10 24 -6 0 -10 29 -10 68 0 97 11 102 57 29z
    m51 -303 l52 -34 0 -216 0 -216 -33 48 c-18 27 -54 87 -81 134 -51 93 -163
    250 -177 250 -5 0 -9 5 -9 10 0 6 9 10 20 10 25 0 105 37 121 56 13 15 20 12
    107 -42z m-2651 -416 c-3 -8 -6 -5 -6 6 -1 11 2 17 5 13 3 -3 4 -12 1 -19z
    m518 -112 c17 -9 35 -16 40 -16 16 0 105 -90 105 -106 0 -3 9 -17 20 -31 11
    -14 20 -32 20 -40 0 -8 6 -20 13 -28 18 -18 40 -194 31 -252 -6 -41 -36 -116
    -54 -133 -3 -3 -14 -24 -25 -47 -11 -24 -26 -43 -32 -43 -7 0 -13 -6 -13 -14
    0 -20 -75 -85 -124 -107 -83 -38 -217 -15 -281 48 -36 36 -65 73 -65 83 0 6
    -4 10 -10 10 -5 0 -10 6 -10 13 0 6 -8 26 -17 42 -28 48 -24 235 7 350 13 50
    31 99 41 110 9 11 24 35 33 53 9 17 21 32 27 32 6 0 24 16 41 35 17 18 44 37
    59 40 16 4 32 11 35 17 9 15 122 3 159 -16z m1784 -2927 c13 9 52 3 61 -8 10
    -13 104 -71 113 -71 6 0 7 -3 4 -7 -4 -3 -2 -12 3 -18 13 -16 -9 -107 -23 -98
    -5 3 -18 -5 -29 -18 l-20 -24 6 28 c4 15 2 27 -4 27 -5 0 -10 -4 -10 -9 0 -5
    -6 -11 -13 -14 -8 -3 -13 3 -13 18 0 16 5 21 16 18 13 -4 13 -4 0 6 -17 12
    -41 15 -37 4 1 -5 -2 -9 -7 -10 -5 -1 -13 -7 -17 -15 -7 -10 -9 -10 -9 0 0 6
    -5 12 -11 12 -5 0 -7 -5 -3 -11 3 -6 -7 -4 -22 4 -41 20 -87 30 -79 17 3 -5
    17 -10 30 -10 29 0 95 -60 95 -86 0 -16 -1 -16 -19 2 -10 10 -17 22 -14 26 2
    4 -17 5 -42 1 -34 -4 -45 -2 -46 8 0 8 -4 5 -9 -6 l-9 -20 0 20 c-1 13 -4 16
    -9 8 -13 -20 -36 1 -24 23 5 11 12 37 14 59 6 47 21 80 46 95 15 10 15 11 -3
    5 -16 -5 -15 -1 9 24 22 22 33 28 45 21 10 -5 23 -5 30 -1z m56 -299 c3 -5 1
    -10 -4 -10 -6 0 -11 5 -11 10 0 6 2 10 4 10 3 0 8 -4 11 -10z m-495 -785 c0
    -27 -12 -38 -33 -29 -22 8 -28 42 -9 53 23 13 42 2 42 -24z m-220 -551 c0 -9
    -5 -14 -12 -12 -18 6 -21 28 -4 28 9 0 16 -7 16 -16z"/>
    <path d="M8450 5565 c0 -3 4 -13 9 -23 55 -105 88 -214 77 -257 -3 -13 -17
    -41 -31 -61 -45 -66 -24 -101 27 -46 29 30 58 116 58 170 0 63 -29 137 -70
    181 -33 35 -70 54 -70 36z"/>
    <path d="M8327 5492 c-10 -10 -17 -24 -17 -30 0 -7 -4 -12 -8 -12 -5 0 -14
    -23 -20 -51 -24 -104 -9 -184 45 -241 41 -43 52 -37 37 20 -7 26 -20 65 -29
    87 -21 47 -16 109 13 174 28 61 15 93 -21 53z"/>
    <path d="M1780 8681 c0 -44 5 -92 11 -108 11 -26 16 -60 37 -216 5 -34 14 -72
    20 -84 15 -28 8 -801 -8 -853 -5 -19 -10 -55 -10 -80 0 -25 -7 -72 -15 -103
    -8 -32 -15 -78 -15 -102 0 -24 -4 -46 -9 -50 -6 -3 -13 -27 -16 -53 -3 -26
    -10 -55 -16 -64 -5 -10 -9 -28 -9 -40 -1 -13 -7 -34 -15 -48 -8 -14 -14 -37
    -15 -51 0 -15 -7 -32 -15 -39 -8 -7 -15 -20 -15 -29 0 -22 -28 -100 -44 -122
    -13 -19 -136 -89 -155 -89 -13 0 -15 37 -2 45 17 10 23 127 8 169 -12 33 -12
    43 -1 65 15 28 19 71 6 71 -4 0 -13 -15 -20 -32 -8 -18 -21 -51 -30 -73 -9
    -22 -40 -86 -69 -142 -29 -57 -53 -106 -53 -110 0 -13 78 74 84 95 4 12 12 22
    17 22 5 0 9 7 9 15 0 8 5 15 10 15 6 0 10 11 10 24 0 28 15 43 23 22 7 -18 -3
    -56 -15 -56 -5 0 -7 -26 -5 -57 5 -76 -7 -99 -57 -117 -39 -14 -89 -28 -111
    -31 -5 -1 -25 -9 -44 -17 l-33 -15 26 -7 c28 -7 36 -26 11 -26 -8 0 -15 -4
    -15 -9 0 -12 -123 -88 -136 -84 -7 2 -9 25 -6 60 4 45 2 57 -12 65 -11 6 -17
    21 -16 41 3 50 1 57 -15 57 -13 0 -14 -135 -11 -1082 3 -1023 7 -1222 23
    -1258 6 -13 20 -210 23 -335 1 -39 9 -115 30 -287 6 -46 12 -135 14 -199 2
    -63 8 -124 13 -135 5 -10 11 -65 12 -121 1 -56 6 -117 12 -135 5 -18 9 -63 9
    -100 0 -39 4 -68 10 -68 6 0 10 -23 10 -51 0 -64 -17 -61 -43 7 -10 27 -23 57
    -28 66 -5 10 -9 27 -9 38 0 11 -4 20 -9 20 -10 0 -41 88 -41 117 0 10 -7 27
    -15 37 -8 10 -12 23 -9 27 3 5 0 17 -5 28 -10 18 -56 184 -68 241 -2 14 -7 32
    -11 40 -13 34 -33 151 -41 240 -5 52 -13 115 -19 140 -17 82 -52 477 -54 620
    l-1 95 -8 -70 c-10 -92 -9 -453 2 -457 4 -2 13 -50 18 -108 6 -58 16 -132 22
    -165 6 -33 14 -82 18 -109 4 -28 13 -52 19 -54 7 -2 12 -27 12 -61 0 -32 3
    -61 7 -65 9 -9 31 -94 40 -151 3 -22 9 -48 14 -57 5 -9 9 -29 9 -43 0 -15 6
    -41 14 -58 14 -31 22 -61 32 -122 3 -16 12 -44 20 -62 8 -17 14 -43 14 -57 0
    -14 5 -26 10 -26 6 0 10 -11 10 -25 0 -14 4 -33 9 -43 6 -9 29 -64 51 -121 23
    -57 45 -111 50 -120 4 -9 23 -45 41 -81 46 -92 60 -116 144 -252 68 -109 210
    -307 239 -333 6 -5 24 -28 41 -50 16 -22 39 -49 50 -61 11 -12 36 -39 56 -60
    42 -46 140 -136 193 -179 21 -16 50 -41 66 -55 60 -54 81 -70 90 -70 6 0 10
    -4 10 -9 0 -16 183 -123 205 -119 5 0 29 -8 52 -18 41 -20 46 -41 8 -38 -78 6
    -240 47 -260 65 -5 5 -17 9 -28 9 -10 0 -28 5 -40 12 -12 7 -26 13 -32 14 -28
    6 -287 137 -335 170 -124 84 -257 212 -382 365 -42 52 -94 110 -115 129 -21
    20 -54 59 -73 88 -19 28 -41 52 -47 52 -7 0 -13 7 -13 15 0 17 -18 52 -37 73
    -7 7 -13 20 -13 28 0 8 -4 14 -10 14 -16 0 -12 -37 5 -44 8 -3 15 -15 15 -26
    0 -11 5 -20 10 -20 6 0 10 -5 10 -10 0 -13 102 -177 127 -206 10 -11 24 -29
    31 -40 33 -52 28 -64 -20 -41 -18 8 -62 27 -98 42 -36 15 -77 36 -92 46 -14
    11 -29 19 -33 19 -4 0 -24 14 -45 30 -43 34 -76 40 -65 13 4 -10 11 -29 15
    -43 4 -14 17 -42 29 -63 11 -20 21 -39 21 -42 2 -18 14 -35 29 -40 10 -3 26
    -13 37 -23 11 -9 28 -24 39 -32 19 -14 19 -14 5 7 -8 12 -36 50 -61 85 -79
    110 -73 124 29 58 33 -22 65 -40 71 -40 5 0 32 -11 59 -25 28 -14 65 -25 83
    -25 33 0 70 -19 102 -51 26 -27 57 -83 57 -104 0 -11 7 -33 16 -50 8 -16 14
    -38 13 -50 -1 -11 3 -33 9 -48 7 -16 12 -41 12 -57 0 -16 5 -32 10 -35 5 -3
    10 -18 10 -32 0 -14 6 -39 13 -56 25 -59 67 -194 67 -216 0 -11 5 -21 10 -21
    6 0 10 -11 10 -25 0 -14 4 -33 9 -43 5 -9 16 -42 26 -72 9 -30 28 -79 41 -108
    13 -29 24 -57 24 -62 0 -6 5 -10 10 -10 6 0 10 -7 10 -15 0 -8 4 -23 9 -33 5
    -9 35 -69 65 -132 31 -63 66 -133 78 -155 11 -22 26 -51 33 -65 7 -14 27 -50
    45 -80 17 -30 34 -63 37 -73 3 -9 9 -17 14 -17 5 0 9 -6 9 -14 0 -7 7 -19 15
    -26 8 -7 15 -21 15 -31 0 -11 4 -19 9 -19 5 0 11 -8 15 -17 12 -37 48 -83 65
    -83 16 0 14 4 -19 53 -16 25 -30 50 -30 56 0 6 -3 11 -8 11 -4 0 -16 20 -27
    45 -11 25 -23 45 -27 45 -5 0 -8 6 -8 14 0 8 -6 21 -12 28 -7 7 -19 27 -27 43
    -7 17 -20 41 -27 55 -8 14 -28 54 -44 89 -46 97 -40 114 20 58 75 -70 266
    -187 305 -187 8 0 15 -4 15 -10 0 -5 13 -10 29 -10 16 0 31 -4 33 -10 3 -10
    71 -27 138 -36 70 -9 150 -27 150 -33 0 -17 -27 -31 -57 -31 -18 0 -52 -4 -75
    -10 -104 -24 -126 -25 -185 -15 -34 5 -65 13 -69 18 -4 4 -20 7 -36 7 -35 0
    -37 -27 -8 -88 11 -23 25 -53 30 -67 l10 -25 870 0 c478 0 870 2 870 4 0 3 -5
    17 -11 33 -6 15 -13 39 -16 53 -2 13 -9 27 -14 31 -6 3 -9 10 -8 15 2 9 -4 29
    -27 81 -8 17 -14 36 -14 43 0 7 -7 24 -15 38 -8 15 -31 62 -52 106 -21 43 -48
    97 -60 120 -12 22 -22 44 -22 49 -2 15 33 6 50 -15 11 -11 22 -18 26 -15 3 4
    13 1 21 -5 16 -14 36 -26 107 -63 87 -46 95 -52 88 -58 -3 -4 2 -7 13 -7 11 0
    36 -11 56 -25 20 -14 43 -25 50 -25 8 0 18 -4 23 -9 6 -6 76 -43 156 -84 81
    -41 178 -93 217 -116 39 -22 75 -41 80 -41 5 0 15 -7 22 -15 7 -8 21 -15 31
    -15 11 0 19 -4 19 -8 0 -5 19 -17 43 -28 23 -10 45 -23 49 -28 4 -6 37 -12 75
    -14 37 -2 66 -2 63 1 -3 3 -79 43 -170 90 -205 106 -302 157 -315 167 -5 4
    -53 30 -105 58 -199 104 -236 125 -285 155 -27 17 -73 44 -100 61 -28 17 -59
    36 -70 43 -11 7 -47 26 -80 44 -33 17 -64 34 -70 39 -5 4 -35 21 -65 37 -159
    87 -247 140 -380 230 -128 87 -183 127 -335 243 -39 30 -84 64 -99 75 -15 11
    -36 27 -46 35 -10 8 -46 38 -80 65 -34 28 -83 70 -109 93 -25 24 -64 56 -86
    72 -45 31 -275 275 -346 366 -101 131 -273 416 -328 544 -13 30 -45 102 -71
    160 -26 58 -57 128 -69 155 -12 28 -26 59 -32 70 -5 11 -13 42 -18 68 -12 67
    -18 71 -82 54 -67 -19 -205 -21 -239 -4 -15 8 -26 22 -27 37 -1 14 -5 72 -8
    130 -4 58 -11 109 -16 115 -10 10 -13 238 -3 248 10 10 56 -15 112 -60 29 -24
    58 -43 65 -43 7 0 23 -12 37 -27 21 -22 26 -23 28 -9 2 9 -2 24 -10 33 -7 9
    -13 21 -14 27 0 6 -2 19 -2 29 -1 10 -7 15 -12 12 -6 -4 -8 -16 -4 -28 6 -21
    5 -21 -22 3 -16 14 -31 28 -34 32 -3 3 -18 10 -33 13 -15 4 -27 11 -27 16 0 5
    -6 9 -14 9 -7 0 -26 6 -41 14 -22 11 -28 23 -31 53 -7 91 -23 223 -28 231 -2
    4 10 6 29 4 18 -2 41 0 50 6 15 8 10 14 -33 38 -54 30 -61 43 -62 114 -1 25
    -5 65 -10 90 -5 25 -12 135 -15 245 -4 110 -11 236 -16 280 -5 44 -9 167 -9
    275 0 107 -5 293 -12 413 -13 247 -16 236 62 238 25 0 70 8 100 18 30 10 56
    15 58 11 1 -4 -25 -35 -58 -70 -33 -34 -60 -67 -60 -72 0 -6 7 -24 16 -41 9
    -18 22 -41 27 -52 46 -88 156 -243 180 -253 4 -2 7 -10 7 -17 0 -7 19 -28 41
    -46 31 -24 38 -27 28 -11 -7 11 -23 26 -36 33 -12 7 -20 16 -17 21 3 4 -2 15
    -10 24 -18 17 -21 54 -5 54 5 0 7 -4 4 -10 -3 -5 0 -7 9 -4 9 3 34 -16 68 -51
    131 -139 247 -251 274 -265 15 -8 50 -30 77 -47 27 -18 57 -33 67 -33 11 0 22
    -5 25 -10 3 -6 26 -15 49 -21 24 -6 58 -24 75 -40 18 -16 34 -29 37 -29 3 0
    17 -9 32 -19 15 -11 38 -22 50 -26 23 -7 23 -6 7 18 -11 17 -22 24 -32 20 -10
    -4 -14 -2 -10 4 9 14 -70 96 -84 88 -5 -4 -9 2 -9 13 0 10 -12 30 -27 44 -16
    14 -37 40 -48 59 -24 40 -34 55 -60 94 -74 111 -142 270 -166 390 -26 129 -39
    226 -39 298 0 62 -3 77 -15 77 -20 0 -19 4 8 48 12 20 28 50 35 66 26 60 117
    184 185 254 39 39 75 72 80 72 5 0 6 -11 3 -25 -4 -14 -4 -25 -1 -25 3 0 27
    16 53 34 26 19 70 44 96 56 53 22 250 70 290 70 23 0 25 -2 16 -26 -15 -39
    -12 -51 8 -28 9 12 37 31 60 43 38 17 51 19 95 10 66 -12 135 -55 161 -98 15
    -26 17 -40 10 -68 -20 -77 -192 -141 -268 -99 -48 26 -67 61 -74 129 -5 65
    -16 57 -26 -20 -3 -21 -12 -81 -22 -133 -24 -139 -26 -542 -2 -660 38 -183
    110 -353 207 -490 34 -47 62 -89 64 -94 2 -6 19 -2 39 7 20 9 40 17 46 17 5 0
    15 7 22 15 10 12 9 15 -6 15 -16 1 -15 3 5 14 16 9 20 15 12 21 -7 4 -15 4
    -18 1 -4 -3 -12 3 -20 14 -8 11 -23 20 -34 20 -10 0 -19 7 -19 15 0 9 -9 25
    -20 37 -11 12 -20 32 -20 45 0 13 -5 22 -11 20 -6 -1 -13 6 -14 15 -2 10 -11
    25 -20 35 -13 12 -16 27 -12 58 4 29 1 48 -9 63 -12 18 -13 29 -3 64 7 24 18
    50 25 58 33 42 23 143 -16 153 -25 6 -27 52 -4 105 8 20 14 54 12 76 -1 25 3
    42 13 50 21 15 39 50 39 75 0 11 9 22 20 26 11 4 18 11 14 16 -3 6 3 13 14 16
    12 3 18 11 16 18 -3 8 4 18 15 24 17 10 20 9 15 -4 -4 -8 -2 -15 4 -15 14 0
    24 -29 15 -43 -4 -7 -8 -30 -9 -52 -1 -22 -5 -108 -8 -192 -7 -166 2 -276 30
    -338 10 -22 17 -44 16 -48 -2 -5 6 -23 16 -40 11 -18 23 -45 26 -61 4 -16 23
    -48 42 -71 19 -23 34 -46 34 -51 0 -5 26 -35 58 -66 l58 -57 45 10 c24 5 53
    13 64 18 82 36 164 50 246 40 35 -4 67 -5 72 -2 4 2 15 -1 23 -8 8 -6 32 -13
    53 -15 34 -2 43 2 74 36 19 22 32 41 29 45 -3 3 0 5 7 5 7 0 10 4 6 9 -3 5 1
    15 8 23 37 37 105 283 113 408 6 88 -9 269 -25 296 -6 11 -22 65 -35 122 l-24
    102 21 26 20 26 13 -23 c13 -23 13 -23 14 13 0 24 8 46 23 64 20 23 33 27 93
    31 67 5 72 4 92 -21 11 -15 23 -32 25 -39 2 -7 7 -10 10 -7 8 8 -68 197 -98
    242 -15 22 -24 42 -22 44 8 8 168 -35 212 -56 22 -11 57 -37 76 -57 57 -60
    192 -223 229 -278 19 -27 37 -52 40 -55 3 -3 18 -24 33 -48 39 -60 59 -82 76
    -82 8 0 22 -6 30 -13 9 -8 48 -24 86 -36 39 -12 85 -26 103 -32 35 -11 57 -4
    33 10 -7 5 -10 14 -7 20 4 6 -6 30 -22 53 -16 24 -31 48 -33 53 -2 6 -39 63
    -81 127 -43 64 -78 119 -78 123 0 10 -131 198 -166 238 -19 20 -34 42 -34 48
    0 13 33 3 74 -22 17 -11 41 -19 53 -19 12 0 23 -4 25 -8 4 -10 93 -52 111 -52
    7 0 18 -5 25 -12 6 -6 14 -9 17 -6 4 3 -28 32 -70 64 -97 74 -92 70 -140 125
    -69 79 -240 213 -367 289 -60 36 -71 50 -40 50 9 0 40 11 67 24 48 23 49 25
    20 26 -16 1 -43 4 -60 6 -16 2 -57 -1 -90 -6 -59 -11 -62 -10 -150 29 -86 38
    -297 96 -360 100 -16 0 -69 8 -119 17 -201 35 -920 42 -1066 10 -41 -8 -106
    -23 -145 -31 -57 -13 -78 -13 -112 -3 -23 7 -44 19 -46 28 -5 21 -114 73 -177
    84 -50 9 -60 17 -60 50 0 18 5 37 10 42 6 6 13 34 17 62 3 29 10 52 14 52 5 0
    9 13 9 29 0 16 5 42 11 58 22 55 62 467 55 565 -3 37 -1 70 5 73 5 4 9 1 9 -6
    0 -7 6 -20 14 -28 13 -14 23 -62 43 -194 3 -20 9 -40 14 -43 5 -3 9 -20 9 -37
    0 -18 7 -43 16 -55 9 -13 13 -26 10 -29 -5 -6 -1 -17 38 -90 9 -17 16 -38 16
    -46 0 -18 31 -80 43 -85 4 -2 7 -12 7 -23 0 -10 5 -19 10 -19 6 0 10 -11 10
    -25 0 -14 5 -25 10 -25 6 0 13 -8 17 -17 3 -10 16 -31 27 -48 12 -16 28 -42
    35 -57 8 -16 18 -28 23 -28 4 0 8 -6 8 -14 0 -18 16 -30 24 -18 4 7 -26 78
    -71 164 -7 15 -14 29 -13 30 1 8 -25 68 -30 68 -3 0 -14 20 -25 45 -11 25 -23
    45 -27 45 -5 0 -8 8 -8 19 0 10 -11 39 -25 65 -14 26 -25 57 -25 69 0 12 -7
    31 -15 41 -8 11 -15 30 -15 42 0 13 -4 25 -9 28 -5 3 -11 20 -14 38 -6 42 -26
    117 -37 143 -5 11 -11 36 -14 55 -11 76 -27 155 -35 165 -4 5 -8 42 -10 80 -2
    39 -7 75 -12 81 -4 6 -11 36 -13 67 -3 31 -8 63 -13 69 -4 7 -11 42 -15 78
    -16 143 -24 190 -35 201 -7 7 -10 33 -6 71 3 34 0 70 -6 86 -10 23 -18 73 -20
    120 -1 6 -5 12 -11 12 -6 0 -10 -33 -10 -79z m-11 -1978 c6 -21 11 -43 11 -50
    0 -19 16 -24 46 -13 47 18 37 3 -13 -20 -55 -25 -61 -29 -123 -66 -30 -19 -56
    -27 -80 -26 -20 2 -55 -4 -79 -13 -52 -18 -51 -18 -51 -2 0 6 17 20 38 29 20
    9 48 23 62 31 14 8 39 19 55 23 24 7 36 22 62 77 37 76 57 85 72 30z m-482
    -355 c24 -23 85 -48 117 -48 14 0 4 -16 -41 -67 -62 -70 -94 -118 -146 -213
    -17 -30 -46 -80 -66 -110 l-36 -55 -8 60 c-4 33 -10 124 -13 202 -6 143 -6
    143 20 174 14 17 26 28 26 25 0 -9 77 31 85 44 10 17 37 11 62 -12z m2023
    -620 c14 1 34 -3 45 -7 11 -5 34 -14 50 -20 17 -7 41 -27 55 -45 14 -19 28
    -32 31 -30 9 5 62 -75 71 -106 4 -14 12 -47 19 -75 6 -27 16 -55 21 -62 5 -7
    9 -69 9 -139 0 -113 -3 -131 -26 -179 -14 -30 -25 -58 -25 -63 0 -5 -18 -25
    -39 -45 -21 -20 -41 -41 -43 -47 -2 -6 -13 -12 -25 -13 -13 0 -25 -7 -27 -13
    -3 -7 -14 -10 -25 -7 -13 3 -21 1 -21 -7 0 -10 -17 -11 -72 -5 -40 3 -77 10
    -83 13 -5 4 -15 7 -21 8 -28 4 -162 139 -170 170 -3 13 -10 24 -15 24 -5 0 -9
    5 -9 11 0 16 -32 83 -44 91 -17 11 -14 227 3 237 7 5 10 14 7 20 -4 6 -2 11 4
    11 6 0 10 6 9 13 -2 16 23 77 33 77 4 0 15 15 24 33 9 17 29 42 43 54 14 13
    22 23 18 23 -19 0 22 27 73 49 30 13 59 27 65 32 5 5 16 6 25 3 8 -4 26 -7 40
    -6z m-702 -424 c45 -13 45 -93 0 -141 -43 -46 -118 -12 -118 52 0 38 49 89 90
    94 3 0 15 -2 28 -5z m-551 -656 c-3 -8 -6 -5 -6 6 -1 11 2 17 5 13 3 -3 4 -12
    1 -19z m69 -67 c-4 -5 -1 -12 4 -14 6 -3 5 -4 -2 -3 -15 3 -23 26 -8 26 6 0 9
    -4 6 -9z m-517 -2035 c1 19 31 25 46 10 8 -7 11 -16 8 -20 -12 -11 -23 -6 -24
    12 -1 15 -2 15 -6 0 -3 -10 -18 -18 -41 -22 -57 -8 -102 -6 -102 5 0 5 13 9
    29 9 16 0 32 6 34 13 4 9 8 9 15 -1 7 -11 11 -10 17 5 7 17 8 17 15 -2 5 -11
    9 -15 9 -9z m-201 -23 c-16 -2 -40 -2 -55 0 -16 2 -3 4 27 4 30 0 43 -2 28 -4z
    m2226 -1929 c3 -8 2 -12 -4 -9 -6 3 -10 10 -10 16 0 14 7 11 14 -7z"/>
    <path d="M3190 5489 c-38 -42 -70 -122 -70 -176 0 -49 38 -145 72 -180 17 -18
    35 -30 40 -27 14 9 -3 57 -34 97 -28 36 -30 43 -24 94 3 30 18 77 32 105 14
    29 32 69 40 90 12 34 11 38 -3 38 -8 0 -32 -18 -53 -41z"/>
    <path d="M3350 5457 c0 -12 9 -40 20 -62 26 -51 29 -130 8 -176 -20 -42 -34
    -119 -22 -119 16 0 54 47 70 86 30 71 15 201 -32 271 -19 30 -44 30 -44 0z"/>
    <path d="M7305 8370 c-3 -5 -2 -10 4 -10 5 0 13 5 16 10 3 6 2 10 -4 10 -5 0
    -13 -4 -16 -10z"/>
    <path d="M3745 7860 c29 -13 94 -13 75 0 -8 5 -33 9 -55 9 -31 0 -36 -2 -20
    -9z"/>
    <path d="M3863 7843 c9 -2 23 -2 30 0 6 3 -1 5 -18 5 -16 0 -22 -2 -12 -5z"/>
    <path d="M3930 7831 c8 -5 26 -12 40 -15 l25 -7 -25 15 c-14 9 -32 15 -40 15
    -13 0 -13 -1 0 -8z"/>
    <path d="M7938 7813 c7 -3 16 -2 19 1 4 3 -2 6 -13 5 -11 0 -14 -3 -6 -6z"/>
    <path d="M4000 7806 c0 -2 13 -6 29 -8 17 -2 28 -1 25 4 -5 8 -54 12 -54 4z"/>
    <path d="M3891 7774 c13 -17 26 -30 28 -27 3 2 -8 16 -24 31 l-28 27 24 -31z"/>
    <path d="M7788 7773 c6 -2 18 -2 25 0 6 3 1 5 -13 5 -14 0 -19 -2 -12 -5z"/>
    <path d="M2185 7750 c-3 -5 -1 -10 4 -10 6 0 11 5 11 10 0 6 -2 10 -4 10 -3 0
    -8 -4 -11 -10z"/>
    <path d="M3930 7726 c0 -2 7 -7 16 -10 8 -3 12 -2 9 4 -6 10 -25 14 -25 6z"/>
    <path d="M3990 7675 c23 -30 51 -57 56 -53 2 3 -13 20 -33 39 -21 19 -31 25
    -23 14z"/>
    <path d="M8138 7611 c-2 -38 0 -82 3 -97 4 -16 7 15 8 69 1 112 -6 130 -11 28z"/>
    <path d="M7869 7634 c-23 -25 -23 -26 -2 -13 13 7 25 19 27 26 8 19 2 16 -25
    -13z"/>
    <path d="M2213 7605 c0 -27 2 -38 4 -22 2 15 2 37 0 50 -2 12 -4 0 -4 -28z"/>
    <path d="M7785 7553 l-28 -38 36 34 c39 37 42 41 28 41 -5 0 -21 -17 -36 -37z"/>
    <path d="M4092 7564 c10 -10 20 -15 24 -12 3 4 -5 12 -18 18 -22 12 -22 12 -6
    -6z"/>
    <path d="M8740 7531 c0 -28 -4 -52 -9 -55 -5 -3 -12 -33 -16 -66 -4 -33 -11
    -60 -16 -60 -5 0 -9 -20 -9 -44 0 -25 -4 -47 -9 -51 -20 -12 -61 -99 -72 -153
    -13 -67 -26 -152 -23 -152 6 0 63 110 79 153 10 26 22 47 26 47 5 0 9 11 9 25
    0 14 4 25 10 25 5 0 12 17 16 38 4 20 10 39 14 42 12 9 23 300 11 300 -6 0
    -11 -21 -11 -49z"/>
    <path d="M2233 7489 c6 -64 28 -156 52 -219 9 -25 19 -57 22 -73 3 -15 9 -30
    14 -33 5 -3 9 -16 9 -29 0 -13 4 -26 9 -30 5 -3 12 -19 16 -35 4 -17 11 -30
    16 -30 5 0 9 -8 9 -18 0 -10 7 -27 15 -38 8 -10 15 -25 15 -32 0 -7 12 -25 28
    -40 15 -16 37 -40 49 -55 34 -40 46 -33 17 10 -13 20 -27 47 -30 60 -4 13 -10
    23 -14 23 -4 0 -11 12 -15 27 -3 15 -15 39 -26 54 -10 15 -19 33 -19 41 0 7
    -7 22 -15 32 -8 11 -15 30 -15 43 0 13 -4 23 -10 23 -5 0 -10 9 -10 19 0 11
    -7 26 -15 35 -8 8 -15 25 -15 38 0 13 -5 29 -10 34 -6 6 -12 25 -15 44 -2 18
    -9 38 -14 43 -6 6 -11 23 -11 38 0 15 -4 31 -10 34 -5 3 -10 21 -10 40 0 19
    -5 37 -11 41 -8 4 -9 -10 -6 -47z"/>
    <path d="M4130 7532 c0 -12 19 -26 26 -19 2 2 -2 10 -11 17 -9 8 -15 8 -15 2z"/>
    <path d="M7708 7478 c-10 -10 -18 -22 -18 -28 0 -5 -8 -13 -17 -19 -10 -5 -15
    -12 -12 -16 4 -3 21 12 39 35 33 42 38 61 8 28z"/>
    <path d="M4226 7427 c27 -29 51 -52 53 -50 6 4 -72 90 -88 97 -8 4 7 -17 35
    -47z"/>
    <path d="M8108 7381 c-4 -30 -12 -59 -18 -65 -5 -5 -10 -22 -10 -37 0 -15 -4
    -30 -9 -33 -4 -3 -11 -24 -15 -46 -3 -23 -10 -49 -15 -58 -15 -30 -29 -66 -47
    -122 -9 -30 -21 -64 -25 -75 -12 -27 -39 -118 -39 -130 0 -17 55 77 83 143 15
    35 27 74 27 87 0 13 7 30 15 39 8 8 15 30 15 49 0 19 7 54 15 77 8 23 15 55
    15 69 0 15 5 32 11 38 5 5 9 34 7 64 l-3 54 -7 -54z"/>
    <path d="M6027 7325 c-4 -43 -7 -115 -7 -160 0 -46 -5 -86 -11 -92 -6 -6 -13
    -64 -15 -140 -4 -135 4 -129 26 22 14 102 19 163 20 248 0 96 23 86 32 -14 4
    -41 12 -96 17 -124 5 -27 12 -68 16 -90 3 -22 11 -53 16 -70 6 -16 13 -67 16
    -112 5 -66 9 -80 21 -76 11 5 13 17 7 57 -3 28 -9 76 -11 106 -3 30 -8 62 -11
    70 -3 8 -9 42 -14 75 -10 61 -20 118 -38 214 -6 30 -15 59 -21 65 -5 5 -10 22
    -10 36 0 14 -6 34 -13 45 -12 16 -15 8 -20 -60z"/>
    <path d="M8569 7228 c-30 -46 -57 -90 -60 -98 -4 -8 -16 -24 -28 -34 -11 -11
    -21 -23 -21 -28 0 -5 -18 -31 -40 -57 -38 -45 -51 -81 -31 -81 5 0 13 9 16 20
    3 11 12 20 19 20 14 0 68 64 119 142 21 33 44 61 52 64 8 3 11 12 8 20 -3 8 1
    24 9 37 19 29 31 77 19 77 -5 0 -33 -37 -62 -82z"/>
    <path d="M3540 7219 c0 -12 48 -82 82 -119 35 -39 151 -130 165 -130 7 0 13 5
    13 10 0 6 -3 10 -7 10 -5 0 -63 54 -130 120 -68 66 -123 115 -123 109z"/>
    <path d="M8852 7169 c-11 -37 -11 -43 5 -54 38 -28 59 33 26 74 -18 22 -18 22
    -31 -20z"/>
    <path d="M2963 7125 c2 -5 14 -9 25 -7 12 2 22 -2 22 -7 0 -6 5 -11 11 -11 7
    0 22 -11 35 -25 13 -14 27 -25 32 -25 5 0 29 -11 53 -24 24 -14 64 -28 89 -32
    l45 -7 -30 35 c-19 21 -33 30 -37 24 -5 -7 -8 -6 -8 3 0 8 -6 11 -15 7 -16 -6
    -63 17 -117 57 -30 22 -111 32 -105 12z"/>
    <path d="M4825 7069 c-10 -99 11 -314 35 -359 6 -10 10 -30 10 -44 0 -14 5
    -26 11 -26 15 0 6 125 -12 175 -9 25 -10 57 -3 122 9 90 1 160 -23 184 -8 8
    -13 -5 -18 -52z"/>
    <path d="M955 7064 c-14 -31 -25 -60 -25 -65 0 -4 -10 -27 -23 -51 -12 -24
    -29 -62 -36 -85 -8 -24 -18 -43 -22 -43 -4 0 -11 -10 -15 -22 -4 -13 -22 -47
    -40 -76 -19 -29 -34 -55 -34 -58 0 -3 -20 -31 -44 -62 -57 -74 -147 -156 -196
    -179 -48 -22 -52 -37 -7 -27 17 4 77 8 132 9 117 4 155 9 195 30 83 43 190
    132 183 152 -4 11 -13 7 -37 -15 -84 -79 -190 -131 -293 -144 -101 -14 -123
    -3 -71 33 18 13 42 35 53 49 11 13 32 36 46 50 14 14 38 47 55 74 16 27 37 60
    46 75 17 27 72 137 90 181 6 14 16 39 23 55 26 64 58 175 49 175 -2 0 -15 -25
    -29 -56z"/>
    <path d="M2740 7093 c0 -20 11 -37 40 -60 67 -56 69 -39 5 36 -44 51 -45 52
    -45 24z"/>
    <path d="M3530 7076 c0 -9 5 -16 10 -16 6 0 10 4 10 9 0 6 -4 13 -10 16 -5 3
    -10 -1 -10 -9z"/>
    <path d="M8963 7046 c2 -6 33 -12 73 -13 80 -2 75 3 -14 15 -44 6 -62 6 -59
    -2z"/>
    <path d="M4669 7003 c2 -36 5 -43 13 -29 10 17 2 76 -10 76 -4 0 -5 -21 -3
    -47z"/>
    <path d="M9445 7040 c-4 -6 -10 -8 -14 -6 -11 7 -97 -71 -88 -80 4 -4 21 2 37
    14 16 12 40 22 54 22 23 0 36 16 36 46 0 16 -16 19 -25 4z"/>
    <path d="M4890 6992 c0 -48 185 -392 211 -392 6 0 9 3 7 8 -14 31 -71 150 -78
    162 -5 8 -24 45 -42 82 -18 38 -36 68 -40 68 -5 0 -8 6 -8 14 0 15 -38 86 -46
    86 -2 0 -4 -12 -4 -28z"/>
    <path d="M3919 6981 c13 -23 49 -46 59 -37 6 6 -17 27 -51 47 -16 9 -17 8 -8
    -10z"/>
    <path d="M9640 6963 c-18 -21 -51 -57 -74 -81 -27 -29 -34 -41 -21 -36 26 9
    104 67 105 77 0 5 7 15 15 23 13 13 22 54 12 54 -2 0 -19 -17 -37 -37z"/>
    <path d="M4318 6965 c2 -14 6 -25 8 -25 2 0 4 11 4 25 0 14 -4 25 -9 25 -4 0
    -6 -11 -3 -25z"/>
    <path d="M4697 6933 c-9 -33 -2 -73 12 -73 4 0 8 -18 9 -41 1 -22 11 -68 22
    -101 11 -34 20 -67 20 -75 0 -7 4 -21 9 -31 5 -9 13 -26 17 -37 7 -18 8 -17
    12 7 2 15 -2 36 -7 47 -6 11 -11 31 -11 45 0 15 -4 34 -9 44 -13 24 -41 117
    -41 136 0 9 -4 16 -9 16 -6 0 -11 21 -13 48 -3 46 -3 46 -11 15z"/>
    <path d="M9441 6944 c0 -11 3 -14 6 -6 3 7 2 16 -1 19 -3 4 -6 -2 -5 -13z"/>
    <path d="M4340 6910 c0 -11 4 -20 9 -20 5 0 7 9 4 20 -3 11 -7 20 -9 20 -2 0
    -4 -9 -4 -20z"/>
    <path d="M8352 6914 c-7 -8 -8 -14 -3 -14 10 0 25 19 20 25 -2 1 -10 -3 -17
    -11z"/>
    <path d="M1367 6833 c-5 -18 -13 -33 -18 -33 -5 0 -9 -8 -9 -17 0 -16 -57
    -143 -69 -153 -3 -3 -12 -17 -20 -32 -8 -15 -36 -52 -63 -82 -49 -56 -55 -66
    -38 -66 30 0 150 140 150 175 0 8 7 18 15 21 8 4 15 15 15 25 0 10 12 43 26
    73 16 34 24 66 22 88 l-3 33 -8 -32z"/>
    <path d="M2299 6834 c-22 -12 -22 -13 -4 -12 11 0 34 3 50 7 l30 7 -26 5 c-15
    3 -38 0 -50 -7z"/>
    <path d="M8593 6823 c15 -2 39 -2 55 0 15 2 2 4 -28 4 -30 0 -43 -2 -27 -4z"/>
    <path d="M8435 6810 c-29 -8 -29 -8 8 -7 20 1 37 5 37 9 0 9 -3 9 -45 -2z"/>
    <path d="M8508 6813 c6 -2 18 -2 25 0 6 3 1 5 -13 5 -14 0 -19 -2 -12 -5z"/>
    <path d="M9428 6813 c6 -2 18 -2 25 0 6 3 1 5 -13 5 -14 0 -19 -2 -12 -5z"/>
    <path d="M3473 6803 c9 -2 23 -2 30 0 6 3 -1 5 -18 5 -16 0 -22 -2 -12 -5z"/>
    <path d="M3560 6800 c19 -13 30 -13 30 0 0 6 -10 10 -22 10 -19 0 -20 -2 -8
    -10z"/>
    <path d="M8310 6800 c0 -10 68 -11 74 -1 3 4 -13 8 -35 8 -21 1 -39 -2 -39 -7z"/>
    <path d="M3685 6785 c106 -16 131 -17 121 -8 -10 11 -34 14 -126 18 l-85 4 90
    -14z"/>
    <path d="M8187 6794 c-2 -2 -25 -6 -51 -8 -27 -3 -51 -8 -55 -11 -8 -9 163 5
    198 15 19 6 11 8 -31 8 -31 0 -59 -2 -61 -4z"/>
    <path d="M4491 6751 c-1 -28 3 -41 8 -35 6 5 6 24 1 44 l-8 35 -1 -44z"/>
    <path d="M7294 6673 c-11 -38 -53 -125 -86 -180 -11 -18 -17 -33 -13 -33 16 0
    63 31 68 45 4 9 19 15 36 15 20 0 39 10 61 33 42 45 71 95 60 102 -10 6 -30
    -12 -73 -69 -49 -63 -54 -52 -31 72 7 34 -12 47 -22 15z"/>
    <path d="M6338 6607 c-55 -50 -67 -67 -50 -67 8 0 122 108 122 115 0 14 -21 0
    -72 -48z"/>
    <path d="M7490 6600 c0 -16 2 -30 4 -30 2 0 6 14 8 30 3 17 1 30 -4 30 -4 0
    -8 -13 -8 -30z"/>
    <path d="M1147 6570 c-40 -43 -44 -50 -24 -50 16 0 57 42 57 58 0 7 5 12 10
    12 6 0 10 5 10 10 0 19 -17 10 -53 -30z"/>
    <path d="M6891 6534 c0 -11 3 -14 6 -6 3 7 2 16 -1 19 -3 4 -6 -2 -5 -13z"/>
    <path d="M5830 6517 c0 -14 66 -77 80 -77 20 0 9 32 -19 61 -30 30 -61 38 -61
    16z"/>
    <path d="M6931 6429 c-41 -22 -79 -38 -85 -36 -5 2 -21 -9 -33 -24 -23 -27
    -30 -49 -15 -49 14 0 71 30 77 41 4 5 15 9 26 9 10 0 19 3 19 8 0 4 18 18 40
    31 34 21 57 48 48 56 -2 2 -36 -15 -77 -36z"/>
    <path d="M10782 6235 c0 -16 2 -22 5 -12 2 9 2 23 0 30 -3 6 -5 -1 -5 -18z"/>
    <path d="M3741 5784 c0 -11 3 -14 6 -6 3 7 2 16 -1 19 -3 4 -6 -2 -5 -13z"/>
    <path d="M4036 5753 c3 -16 1 -46 -4 -68 -7 -34 -12 -40 -33 -38 -14 1 -50 13
    -79 27 -29 14 -56 23 -59 20 -3 -3 -1 -8 4 -12 15 -11 35 -50 35 -69 0 -10 16
    -31 35 -46 38 -30 44 -53 19 -72 -16 -11 -16 -15 -1 -43 9 -19 18 -75 22 -142
    4 -61 12 -113 16 -116 12 -7 11 -81 -1 -105 -8 -13 -7 -19 0 -19 6 0 -2 -18
    -16 -40 -27 -41 -31 -69 -19 -126 6 -25 3 -34 -14 -46 -11 -8 -18 -17 -15 -21
    3 -3 2 -12 -2 -19 -5 -7 -10 -22 -11 -32 -2 -10 -15 -29 -28 -42 -25 -23 -35
    -74 -15 -74 6 0 10 -5 10 -11 0 -6 -9 -9 -20 -6 -11 3 -23 1 -26 -4 -3 -5 -18
    -9 -35 -9 -34 0 -35 -10 -11 -65 22 -50 27 -115 10 -127 -10 -7 -10 -11 -1
    -14 21 -9 -18 -41 -64 -53 -51 -14 -57 -23 -10 -15 79 13 117 35 157 90 22 29
    40 55 40 58 0 7 -90 66 -101 66 -20 0 -8 37 16 48 35 16 50 15 95 -7 47 -23
    50 -20 86 70 35 86 44 116 55 169 22 102 29 152 43 284 18 172 10 296 -33 488
    -17 76 -31 140 -31 143 0 3 -4 5 -10 5 -5 0 -7 -12 -4 -27z"/>
    <path d="M9076 5334 c-9 -24 -2 -26 12 -4 7 11 8 20 3 20 -5 0 -12 -7 -15 -16z"/>
    <path d="M9065 5281 c-9 -15 26 -91 41 -91 19 0 18 10 -7 36 -11 12 -21 31
    -22 43 -1 23 -3 25 -12 12z"/>
    <path d="M1540 4862 c0 -12 19 -26 26 -19 2 2 -2 10 -11 17 -9 8 -15 8 -15 2z"/>
    <path d="M10270 4825 c-19 -19 -31 -35 -28 -35 4 0 23 16 42 35 20 19 33 35
    28 35 -4 0 -23 -16 -42 -35z"/>
    <path d="M10220 4769 c0 -5 5 -7 10 -4 6 3 10 8 10 11 0 2 -4 4 -10 4 -5 0
    -10 -5 -10 -11z"/>
    <path d="M10781 4655 c1 -19 18 -51 18 -35 0 8 -4 22 -9 30 -5 8 -9 11 -9 5z"/>
    <path d="M8832 4618 c-1 -13 -2 -41 -2 -62 0 -65 -63 -165 -103 -166 -10 0
    -15 -4 -12 -10 3 -5 0 -10 -8 -10 -8 0 -17 -7 -21 -15 -7 -19 -4 -19 49 6 50
    24 123 93 168 159 16 25 41 57 55 73 l26 27 -67 0 c-38 0 -67 4 -67 10 0 20
    -16 9 -18 -12z"/>
    <path d="M2880 4580 c-8 -5 -41 -10 -72 -10 -32 0 -58 -2 -58 -4 0 -2 15 -20
    33 -39 17 -19 58 -64 91 -101 72 -82 109 -102 211 -111 88 -8 102 0 16 9 -53
    6 -141 42 -141 58 0 4 0 11 -1 16 0 4 -11 13 -24 19 -20 11 -24 23 -30 80 -9
    97 -8 94 -25 83z"/>
    <path d="M2157 4383 c-18 -50 -22 -93 -9 -93 4 0 30 15 57 33 28 18 65 39 82
    46 43 17 33 31 -14 21 -22 -5 -48 -22 -64 -39 -23 -27 -58 -44 -47 -23 3 4 11
    22 18 40 8 17 18 32 22 32 4 0 8 7 8 15 0 8 -8 15 -18 15 -12 0 -23 -15 -35
    -47z"/>
    <path d="M9645 4409 c-4 -5 0 -18 8 -27 18 -21 31 -72 18 -72 -5 0 -21 14 -35
    30 -30 37 -82 58 -99 41 -8 -8 -7 -11 4 -11 8 0 44 -20 81 -45 37 -25 73 -45
    79 -45 14 0 4 59 -18 106 -17 35 -27 41 -38 23z"/>
    <path d="M9500 4360 c-9 -6 -10 -10 -3 -10 6 0 15 5 18 10 8 12 4 12 -15 0z"/>
    <path d="M4025 4350 c-3 -6 6 -15 20 -20 37 -14 40 -13 20 10 -20 22 -31 25
    -40 10z"/>
    <path d="M7817 4342 c-26 -28 -20 -35 13 -15 17 9 30 21 30 25 0 15 -27 8 -43
    -10z"/>
    <path d="M3720 4328 c-58 -10 -115 -22 -128 -28 -13 -5 -40 -10 -60 -11 -20
    -1 -48 -5 -62 -9 -37 -12 61 -13 131 -1 30 5 88 15 129 21 41 7 92 21 115 31
    38 17 39 18 10 16 -16 -1 -77 -9 -135 -19z"/>
    <path d="M8010 4342 c0 -24 323 -82 400 -72 25 3 -33 18 -75 19 -23 1 -45 5
    -50 9 -11 10 -95 28 -170 37 -27 4 -62 9 -77 11 -16 3 -28 1 -28 -4z"/>
    <path d="M8628 4335 c-3 -3 -34 -10 -69 -15 l-64 -9 80 4 c43 3 84 10 89 15 7
    7 3 10 -10 10 -12 0 -23 -2 -26 -5z"/>
    <path d="M2442 4279 c-29 -29 -51 -54 -48 -56 9 -9 45 18 67 49 12 18 29 39
    37 46 9 6 12 12 6 12 -5 0 -33 -23 -62 -51z"/>
    <path d="M2651 4306 c12 -10 60 -16 54 -6 -3 5 -18 10 -32 10 -15 0 -24 -2
    -22 -4z"/>
    <path d="M9105 4301 c-47 -6 -48 -6 -19 -13 36 -8 102 0 110 13 6 10 -11 9
    -91 0z"/>
    <path d="M2720 4291 c0 -6 17 -7 38 -4 51 8 53 13 4 13 -23 0 -42 -4 -42 -9z"/>
    <path d="M8560 4286 c-66 -6 -106 -14 -93 -18 27 -7 195 11 208 23 5 5 7 8 5
    8 -3 -1 -57 -7 -120 -13z"/>
    <path d="M2557 4278 c14 -16 92 -43 101 -34 5 6 -39 26 -88 41 -21 7 -23 6
    -13 -7z"/>
    <path d="M2870 4278 c0 -19 18 -43 25 -36 9 9 -4 48 -16 48 -5 0 -9 -6 -9 -12z"/>
    <path d="M3246 4282 c-7 -12 136 -21 174 -11 15 5 -4 8 -50 8 -41 1 -85 4 -96
    7 -12 3 -25 1 -28 -4z"/>
    <path d="M8970 4263 c0 -26 1 -26 14 -8 14 20 12 35 -5 35 -5 0 -9 -12 -9 -27z"/>
    <path d="M9276 4283 c-4 -5 -28 -16 -54 -25 -39 -14 -42 -17 -20 -17 32 -1
    108 27 108 40 0 11 -24 12 -34 2z"/>
    <path d="M9390 4282 c0 -13 47 -62 59 -62 6 0 8 6 5 13 -7 17 -64 61 -64 49z"/>
    <path d="M2964 4245 c-11 -27 2 -37 14 -11 7 16 8 26 1 26 -5 0 -12 -7 -15
    -15z"/>
    <path d="M8880 4252 c0 -5 7 -17 15 -28 15 -19 20 -8 9 20 -6 17 -24 22 -24 8z"/>
    <path d="M10456 3728 c-14 -44 -26 -111 -22 -116 3 -3 7 1 9 9 5 18 28 90 34
    107 3 6 0 12 -6 12 -7 0 -13 -6 -15 -12z"/>
    <path d="M1318 3708 c-3 -7 1 -23 8 -36 7 -14 10 -30 8 -37 -3 -7 0 -16 5 -20
    6 -3 9 -11 5 -16 -3 -5 -1 -15 4 -22 6 -7 19 -46 30 -87 29 -109 27 -41 -3 82
    -33 139 -36 148 -45 148 -5 0 -10 -6 -12 -12z"/>
    <path d="M10425 3589 c-4 -6 -5 -12 -2 -15 2 -3 7 2 10 11 7 17 1 20 -8 4z"/>
    <path d="M10410 3544 c0 -8 5 -12 10 -9 6 4 8 11 5 16 -9 14 -15 11 -15 -7z"/>
    <path d="M5748 2933 c12 -2 30 -2 40 0 9 3 -1 5 -23 4 -22 0 -30 -2 -17 -4z"/>
    <path d="M6338 2933 c6 -2 18 -2 25 0 6 3 1 5 -13 5 -14 0 -19 -2 -12 -5z"/>
    <path d="M5411 2919 c-66 -13 -64 -22 3 -14 63 6 114 25 66 24 -14 -1 -45 -5
    -69 -10z"/>
    <path d="M720 2913 c0 -4 5 -15 10 -23 8 -13 10 -13 10 2 0 9 -4 20 -10 23 -5
    3 -10 3 -10 -2z"/>
    <path d="M5275 2874 c-86 -37 -91 -48 -7 -15 68 26 97 42 76 41 -5 -1 -36 -12
    -69 -26z"/>
    <path d="M746 2862 c-5 -14 -2 -34 8 -54 9 -17 16 -42 16 -55 0 -12 5 -23 10
    -23 6 0 10 -5 10 -12 0 -7 7 -32 16 -55 17 -45 40 -60 31 -20 -6 24 -52 151
    -67 182 -5 11 -11 29 -13 40 -3 19 -4 19 -11 -3z"/>
    <path d="M11 2848 c-1 -27 22 -108 31 -108 4 0 8 -8 8 -19 0 -10 12 -40 26
    -67 14 -27 33 -62 41 -79 9 -16 21 -39 26 -50 6 -11 25 -47 42 -80 17 -33 40
    -75 51 -94 26 -45 164 -255 172 -261 4 -3 29 -32 56 -65 70 -84 154 -170 161
    -164 5 5 -98 155 -115 169 -14 11 -140 190 -140 199 0 5 -4 11 -8 13 -10 4
    -142 216 -142 229 0 5 -3 9 -7 9 -5 0 -17 20 -28 45 -11 25 -22 45 -26 45 -4
    0 -10 11 -13 25 -4 14 -11 25 -16 25 -6 0 -10 9 -10 20 0 11 -4 20 -10 20 -5
    0 -10 7 -10 15 0 9 -11 33 -25 55 -14 22 -25 46 -25 55 0 8 -4 15 -10 15 -5 0
    -14 15 -19 33 -5 17 -10 24 -10 15z"/>
    <path d="M5140 2792 c-88 -72 -188 -178 -218 -232 -71 -126 -105 -244 -105
    -360 0 -46 14 -163 20 -173 4 -7 9 -18 10 -24 29 -130 89 -228 203 -332 86
    -79 130 -105 320 -189 79 -35 339 -94 460 -104 261 -23 622 36 811 132 38 20
    147 96 189 132 9 7 29 20 47 28 30 15 156 170 172 213 5 13 19 72 31 132 17
    84 21 125 15 175 -4 36 -9 93 -11 127 -2 34 -10 75 -17 90 -8 16 -20 46 -27
    68 -7 22 -37 74 -66 116 -60 85 -167 190 -172 167 -2 -8 -26 -24 -55 -36 -73
    -31 -167 -29 -167 3 0 18 -34 45 -58 45 -11 0 -24 5 -27 10 -3 6 -41 10 -83
    10 -42 0 -120 5 -173 12 -74 9 -144 9 -310 0 -301 -17 -551 -38 -574 -47 -11
    -5 -45 -27 -76 -51 -31 -23 -67 -47 -79 -54 -38 -20 -140 4 -140 34 0 7 30 41
    66 75 36 35 64 64 62 66 -2 2 -23 -13 -48 -33z m-276 -427 c-4 -8 -8 -15 -10
    -15 -2 0 -4 7 -4 15 0 8 4 15 10 15 5 0 7 -7 4 -15z m1396 -375 c303 -47 466
    -99 608 -192 58 -39 75 -58 52 -58 -6 0 -16 -11 -22 -25 -7 -15 -17 -24 -25
    -21 -7 3 -13 1 -13 -5 0 -6 -4 -8 -9 -5 -5 3 -11 -1 -15 -9 -3 -8 -12 -15 -20
    -15 -8 0 -23 -11 -34 -25 -11 -14 -25 -25 -31 -25 -5 0 -19 -9 -29 -20 -10
    -11 -27 -21 -39 -23 -11 -1 -28 -11 -37 -20 -10 -9 -24 -17 -32 -17 -9 0 -22
    -7 -30 -15 -8 -8 -21 -12 -29 -9 -8 4 -15 1 -15 -5 0 -6 -11 -11 -24 -11 -14
    0 -28 -5 -31 -11 -4 -6 -13 -8 -20 -5 -7 2 -22 -2 -34 -10 -11 -8 -43 -18 -71
    -21 -27 -3 -50 -9 -50 -13 0 -4 -10 -8 -22 -8 -13 0 -66 -8 -118 -17 -78 -15
    -124 -17 -255 -11 -162 6 -213 11 -245 21 -10 3 -27 8 -37 10 -163 40 -212 55
    -318 101 -110 47 -195 99 -195 120 0 8 -3 13 -7 11 -5 -3 -36 21 -71 53 l-63
    58 29 21 c17 11 33 21 35 21 5 0 157 69 198 90 37 19 322 82 424 93 126 15
    497 13 595 -3z"/>
    <path d="M840 2593 c0 -10 5 -25 10 -33 7 -11 10 -7 10 18 0 17 -4 32 -10 32
    -5 0 -10 -8 -10 -17z"/>
    <path d="M871 2524 c0 -11 3 -14 6 -6 3 7 2 16 -1 19 -3 4 -6 -2 -5 -13z"/>
    <path d="M890 2463 c0 -14 19 -65 42 -112 35 -69 44 -81 46 -61 2 13 -1 26 -7
    28 -6 2 -11 14 -11 27 0 13 -3 25 -7 27 -14 6 -43 69 -43 94 0 13 -4 24 -10
    24 -5 0 -10 -12 -10 -27z"/>
    <path d="M10780 2258 c0 -19 2 -20 10 -8 13 19 13 30 0 30 -5 0 -10 -10 -10
    -22z"/>
    <path d="M992 2245 c0 -16 2 -22 5 -12 2 9 2 23 0 30 -3 6 -5 -1 -5 -18z"/>
    <path d="M470 2180 c0 -6 7 -13 15 -16 8 -4 15 -11 15 -17 0 -5 15 -28 33 -51
    32 -40 44 -59 83 -138 10 -21 22 -38 26 -38 5 0 8 -9 8 -20 0 -11 5 -20 10
    -20 6 0 10 -6 10 -12 0 -7 12 -24 25 -37 14 -13 25 -29 25 -35 0 -12 71 -79
    118 -112 37 -26 26 6 -19 56 -70 76 -189 236 -189 253 0 9 41 -1 50 -12 17
    -20 59 -50 79 -56 15 -4 -13 24 -65 67 -49 42 -117 103 -152 137 -65 63 -72
    68 -72 51z"/>
    <path d="M10782 1820 c-32 -34 -46 -60 -32 -60 20 0 62 47 58 66 -3 17 -5 16
    -26 -6z"/>
    <path d="M440 120 c0 -5 5 -10 11 -10 5 0 7 5 4 10 -3 6 -8 10 -11 10 -2 0 -4
    -4 -4 -10z"/>
    <path d="M470 80 c0 -15 43 -80 53 -80 5 0 6 6 3 13 -3 6 -9 20 -12 30 -4 9
    -13 17 -21 17 -8 0 -12 4 -8 9 3 5 1 12 -5 16 -5 3 -10 1 -10 -5z"/>
    </g>
</svg>