<?xml version="1.0" standalone="no"?>
<!DOCTYPE svg PUBLIC "-//W3C//DTD SVG 20010904//EN"
"http://www.w3.org/TR/2001/REC-SVG-20010904/DTD/svg10.dtd">
<svg version="1.0" xmlns="http://www.w3.org/2000/svg"
width="1200.000000pt" height="1300.000000pt" viewBox="0 0 1200.000000 1300.000000"
preserveAspectRatio="xMidYMid meet">
<metadata>
Created by potrace 1.15, written by Peter Selinger 2001-2017
</metadata>
<g transform="translate(0.000000,1300.000000) scale(0.100000,-0.100000)"
fill="#000000" stroke="none">
<path d="M11516 12678 c-81 -79 -146 -151 -146 -160 0 -10 9 -22 20 -28 17 -9
26 -4 62 34 l42 44 20 -60 c12 -33 25 -60 31 -60 20 1 26 63 11 110 -20 57
-20 64 2 88 96 107 140 174 113 174 -5 0 -75 -64 -155 -142z"/>
<path d="M11620 12403 c-8 -4 -66 -30 -128 -60 -111 -52 -133 -74 -83 -81 18
-3 119 24 169 45 7 2 -7 -25 -30 -61 -30 -46 -48 -64 -58 -60 -41 17 -50 16
-50 -2 0 -24 103 -177 137 -204 29 -23 64 -12 58 17 -2 10 -4 21 -4 25 -1 3
-21 31 -47 62 l-45 56 25 23 c14 12 50 58 81 101 44 62 55 86 53 110 -3 27 -7
31 -33 33 -16 1 -37 -1 -45 -4z"/>
<path d="M7160 12381 c-42 -9 -100 -38 -100 -50 0 -5 -26 -24 -57 -41 -50 -28
-177 -147 -274 -256 -101 -115 -209 -282 -229 -355 l-10 -37 -43 10 c-23 5
-85 11 -138 12 -53 2 -100 5 -105 8 -5 3 -52 6 -104 7 -52 1 -162 4 -244 6
-100 3 -154 1 -163 -7 -9 -7 -17 -7 -28 2 -8 7 -23 9 -37 4 -13 -4 -44 -6 -70
-5 -27 1 -48 -2 -48 -7 0 -4 -19 -6 -42 -4 -23 3 -64 0 -92 -6 -28 -6 -94 -16
-146 -23 -52 -6 -122 -18 -155 -26 -33 -8 -103 -23 -155 -34 -52 -11 -104 -25
-115 -30 -12 -6 -27 -11 -35 -13 -25 -4 -163 -46 -200 -60 -19 -7 -60 -22 -90
-31 -30 -10 -57 -21 -60 -25 -3 -3 -21 -11 -42 -17 l-36 -11 -31 49 c-51 77
-178 179 -316 251 -138 72 -167 86 -190 90 -11 1 -22 6 -25 9 -10 10 -252 94
-395 136 -79 23 -295 74 -355 84 -63 11 -78 14 -139 29 -24 6 -50 9 -57 6 -6
-2 -15 -2 -18 2 -4 3 -14 7 -24 8 -9 1 -60 7 -112 13 -52 6 -131 15 -175 20
-101 10 -418 5 -442 -7 -10 -5 -23 -7 -30 -5 -18 7 -110 -24 -144 -47 -16 -12
-38 -38 -48 -58 -25 -49 -64 -209 -76 -312 -2 -14 -8 -50 -13 -80 -6 -30 -14
-77 -17 -105 -3 -27 -10 -77 -15 -110 -5 -33 -12 -91 -15 -130 -2 -38 -7 -81
-10 -95 -3 -14 -7 -60 -9 -103 -3 -44 -7 -81 -10 -84 -3 -3 -27 15 -53 40
-157 147 -293 247 -336 247 -8 0 -18 4 -21 9 -5 8 -155 58 -226 77 -43 11
-286 34 -361 34 -142 0 -164 -24 -144 -154 6 -39 9 -125 7 -191 -10 -342 -10
-440 -1 -451 6 -7 6 -15 1 -18 -5 -3 -5 -31 -1 -63 4 -32 9 -78 12 -103 7 -63
15 -92 49 -194 82 -248 219 -391 436 -455 38 -12 79 -21 91 -21 29 0 27 -14
-5 -29 -44 -20 -224 -168 -224 -184 0 -3 -17 -23 -37 -44 -64 -67 -163 -201
-163 -221 0 -6 -4 -12 -8 -14 -12 -5 -72 -113 -72 -131 0 -8 -6 -17 -13 -20
-6 -2 -31 -42 -54 -88 -53 -106 -153 -318 -153 -324 0 -3 -14 -35 -31 -72
-183 -398 -173 -370 -148 -412 24 -40 85 -67 193 -86 107 -19 391 -14 496 9
80 18 189 51 230 71 126 60 226 126 299 195 43 41 43 41 37 13 -4 -15 -18 -65
-32 -110 -14 -46 -22 -88 -18 -94 3 -6 1 -15 -6 -19 -11 -7 -27 -60 -54 -180
-7 -30 -15 -62 -18 -70 -3 -8 -11 -42 -18 -75 -6 -33 -16 -70 -21 -83 -5 -13
-7 -28 -3 -33 3 -6 1 -15 -4 -22 -11 -15 -22 -57 -29 -117 -3 -25 -9 -50 -14
-56 -5 -6 -6 -14 -3 -17 4 -3 3 -14 -1 -24 -4 -10 -9 -25 -11 -33 -2 -8 -8
-37 -15 -65 -6 -27 -11 -61 -11 -75 0 -14 -4 -30 -9 -36 -5 -6 -11 -28 -13
-50 -2 -21 -6 -46 -9 -54 -3 -8 -8 -35 -12 -60 -3 -25 -8 -56 -11 -70 -11 -62
-14 -78 -18 -122 -2 -26 -8 -53 -12 -60 -5 -7 -9 -33 -10 -58 -1 -25 -3 -45
-4 -45 -1 0 -3 -11 -6 -25 -2 -14 -7 -41 -11 -60 -11 -57 -12 -62 -17 -125 -3
-33 -8 -71 -11 -84 -9 -45 -31 -204 -40 -296 -3 -27 -8 -63 -10 -80 -8 -45
-16 -131 -20 -210 -3 -38 -7 -81 -10 -95 -4 -14 -9 -65 -11 -115 -7 -125 -12
-200 -15 -200 -1 0 -3 -32 -4 -70 -1 -39 -6 -81 -10 -93 -3 -13 -2 -29 4 -36
6 -7 8 -16 5 -19 -4 -3 -8 -32 -11 -64 -2 -32 -6 -63 -8 -70 -2 -7 0 -15 6
-19 6 -3 6 -10 1 -17 -14 -18 -23 -135 -11 -142 6 -5 6 -12 -3 -22 -8 -10 -13
-46 -13 -97 0 -45 -3 -86 -8 -93 -4 -6 -7 -31 -6 -55 2 -43 -13 -210 -31 -343
-5 -38 -9 -79 -9 -90 0 -11 -3 -40 -7 -65 -3 -25 -6 -73 -7 -107 -1 -35 -6
-63 -10 -63 -5 0 -5 -9 -2 -20 4 -12 2 -26 -3 -33 -12 -14 -32 -119 -25 -130
2 -4 0 -13 -5 -20 -5 -7 -9 -19 -10 -27 0 -8 -3 -35 -7 -60 -4 -25 -9 -61 -11
-80 -7 -49 -9 -63 -17 -80 -3 -8 -9 -33 -12 -55 -4 -22 -8 -51 -10 -65 -2 -14
-9 -41 -15 -60 -5 -19 -10 -49 -10 -65 0 -17 -5 -36 -11 -42 -6 -6 -12 -31
-14 -55 -2 -49 -13 -97 -27 -115 -5 -7 -7 -17 -4 -22 4 -5 2 -13 -4 -16 -6 -4
-8 -15 -5 -25 3 -10 1 -21 -4 -24 -6 -4 -8 -13 -5 -20 3 -8 1 -17 -5 -20 -6
-4 -8 -13 -4 -21 3 -9 0 -22 -7 -30 -6 -8 -13 -24 -16 -37 -2 -13 -6 -39 -10
-58 -3 -19 -9 -44 -14 -55 -12 -30 -31 -103 -29 -112 3 -10 -9 -58 -22 -93 -5
-14 -11 -35 -13 -47 -3 -12 -11 -48 -20 -80 -24 -93 -30 -117 -31 -128 0 -5
-4 -16 -8 -22 -5 -7 -5 -17 -2 -23 3 -5 2 -10 -2 -10 -5 0 -10 -14 -11 -31 -1
-17 -7 -40 -12 -50 -6 -10 -9 -31 -8 -46 1 -15 -6 -42 -15 -59 -9 -17 -14 -34
-11 -37 3 -3 -1 -25 -10 -50 -8 -25 -17 -61 -19 -79 -3 -18 -7 -40 -10 -48 -3
-8 -8 -37 -12 -65 -4 -27 -8 -59 -10 -70 -19 -106 -24 -139 -20 -143 2 -3 0
-12 -5 -21 -29 -55 -33 -608 -5 -731 3 -14 8 -38 10 -55 5 -33 21 -110 35
-165 4 -19 10 -44 13 -55 19 -77 99 -273 117 -285 14 -10 29 -77 34 -153 3
-43 8 -82 11 -87 8 -13 105 -13 105 0 0 6 7 10 15 10 20 0 19 16 -4 54 -13 21
-21 60 -26 121 -9 124 -4 394 9 510 3 28 8 73 10 100 3 28 6 50 7 50 0 0 2 14
4 30 1 17 7 56 14 88 6 32 10 61 9 65 -1 4 2 18 5 32 4 14 9 39 11 55 2 17 5
32 7 35 1 3 3 10 4 15 1 6 5 21 8 35 10 38 37 152 42 175 2 11 15 65 30 119
14 55 27 109 30 120 2 12 11 42 19 68 8 25 11 50 8 54 -4 4 -1 4 6 0 7 -4 10
-11 8 -15 -7 -11 -22 -147 -32 -301 -8 -113 -13 -652 -7 -663 4 -7 13 -149 13
-214 0 -13 5 -23 11 -23 6 0 7 -6 1 -15 -8 -16 3 -147 15 -175 4 -8 8 -33 8
-55 2 -45 12 -118 20 -155 3 -14 7 -34 9 -45 2 -11 6 -35 10 -53 l8 -32 2089
0 2090 0 -6 21 c-7 20 -5 21 31 13 22 -5 76 -9 122 -8 62 0 82 -3 82 -13 0 -9
15 -13 48 -13 48 0 48 1 44 28 -6 42 36 67 92 56 38 -8 41 -11 44 -46 4 -48
32 -54 32 -7 0 28 3 31 23 25 12 -3 39 -9 60 -12 27 -5 37 -11 37 -25 0 -11 7
-19 15 -19 8 0 15 5 15 10 0 7 18 8 49 4 29 -4 56 -2 70 5 17 10 21 9 21 -4 0
-13 46 -15 391 -15 l391 0 -6 24 c-5 21 -1 25 39 35 61 15 62 15 69 -24 4 -19
13 -35 20 -35 11 0 12 8 6 37 -5 20 -7 40 -5 43 2 4 32 15 65 25 71 22 74 20
84 -56 5 -35 11 -49 22 -49 13 0 15 9 9 53 -3 28 -8 59 -11 68 -3 11 10 20 48
32 28 9 54 14 58 12 7 -4 11 -45 11 -105 1 -54 7 -60 64 -60 46 0 53 3 51 17
-7 36 -19 322 -20 483 -1 91 -5 171 -9 178 -5 6 -4 12 1 12 13 0 13 122 0 137
-7 9 -7 17 1 27 7 9 10 48 6 117 -2 57 -7 187 -10 289 -3 102 -8 194 -10 205
-2 11 -6 49 -9 85 -14 170 -18 218 -25 251 -5 19 -6 57 -4 85 2 27 0 74 -5
105 -7 43 -5 61 5 75 8 11 28 47 46 81 17 34 32 61 33 60 1 -1 12 -65 23 -142
11 -77 28 -183 36 -235 8 -52 22 -149 30 -215 20 -150 31 -192 55 -205 34 -18
97 -11 202 24 109 35 205 60 277 71 l44 7 -7 -78 c-4 -44 -11 -110 -16 -149
-6 -38 -12 -86 -14 -105 -5 -41 -9 -59 -31 -153 -9 -38 -14 -75 -11 -83 3 -8
2 -14 -3 -14 -9 0 -18 -29 -27 -80 -3 -14 -7 -32 -11 -40 -9 -22 -11 -29 -31
-100 -11 -36 -22 -72 -25 -80 -20 -47 -36 -103 -31 -111 3 -5 1 -9 -4 -9 -5 0
-16 -24 -24 -52 -9 -29 -28 -89 -43 -133 -28 -82 -34 -101 -35 -110 0 -3 -6
-18 -14 -34 -8 -15 -17 -39 -20 -52 -2 -13 -11 -41 -20 -61 -30 -70 -34 -68
145 -68 106 0 158 3 154 10 -4 6 -2 25 4 43 8 26 21 287 21 433 0 29 2 30 78
46 42 10 124 29 182 43 101 26 175 41 236 49 16 2 40 8 54 13 23 9 140 25 140
19 0 -1 12 -36 26 -77 14 -41 27 -78 28 -84 1 -5 28 -119 61 -252 l60 -243
762 0 c759 0 762 0 768 20 4 12 27 41 51 66 24 25 44 50 44 56 0 5 6 16 13 23
23 26 33 40 40 55 10 20 28 50 52 85 36 54 45 69 71 125 14 30 30 62 35 70 5
8 14 26 20 40 6 14 17 36 24 50 22 43 116 331 119 365 2 17 6 37 9 42 4 6 9
32 13 59 3 27 7 58 8 69 1 11 6 27 9 35 4 8 8 57 9 107 3 90 4 93 27 93 21 0
23 -3 17 -32 -17 -97 -27 -231 -17 -241 7 -7 14 -7 20 -1 15 14 38 110 46 191
8 78 13 83 77 75 23 -4 28 -11 38 -56 14 -65 29 -182 35 -266 9 -136 15 -228
21 -330 3 -58 10 -136 16 -175 13 -90 12 -132 -7 -203 -8 -32 -16 -67 -18 -78
-2 -10 -7 -26 -10 -34 -4 -8 -8 -26 -11 -40 -2 -14 -16 -55 -30 -93 -14 -37
-26 -70 -26 -72 0 -3 11 -5 24 -5 19 0 28 11 49 57 46 105 109 340 122 453 3
25 10 72 16 105 13 80 24 517 14 628 -5 69 -11 92 -27 107 -20 18 -20 18 4 25
12 4 38 19 57 32 27 21 35 23 42 12 9 -14 69 -196 70 -214 1 -5 8 -30 15 -55
15 -46 37 -142 55 -240 6 -30 13 -59 16 -64 3 -4 7 -34 10 -65 2 -31 8 -72 13
-91 4 -19 11 -65 15 -102 4 -38 11 -68 17 -68 7 0 7 -5 -1 -13 -6 -8 -9 -16
-7 -18 10 -10 32 -278 35 -416 l1 -73 60 0 c43 0 58 3 55 12 -2 7 -7 78 -10
158 -3 80 -7 156 -9 170 -2 14 -9 70 -16 125 -15 134 -17 145 -30 160 -8 10
-8 15 0 20 6 4 8 14 5 24 -4 9 -8 25 -10 36 -31 212 -98 446 -172 605 -46 98
-76 140 -100 140 -9 0 -12 7 -9 18 3 9 8 31 12 47 4 17 17 44 29 60 60 83 78
211 79 560 0 301 -8 369 -49 390 -46 23 -46 25 -21 58 70 94 116 232 147 447
21 142 17 596 -6 745 -4 22 -7 59 -9 82 -1 24 -5 45 -8 49 -4 3 -4 12 -1 20 3
8 0 20 -6 28 -6 7 -9 21 -5 29 3 9 1 40 -5 69 -6 29 -13 72 -15 94 -3 23 -9
59 -15 80 -5 22 -12 59 -15 84 -4 25 -9 59 -12 75 -3 17 -9 50 -14 75 -41 226
-64 326 -76 323 -5 -1 -25 -8 -45 -15 -37 -14 -42 -32 -23 -78 4 -8 8 -25 10
-38 1 -12 8 -48 15 -80 6 -31 13 -67 14 -79 2 -12 7 -36 11 -55 4 -18 7 -37 6
-42 -2 -4 2 -14 8 -20 5 -7 7 -15 4 -18 -7 -8 17 -128 26 -128 4 0 6 -17 5
-37 -2 -21 3 -72 10 -113 7 -41 16 -100 20 -130 4 -30 10 -59 13 -65 4 -5 8
-32 9 -60 0 -27 4 -79 7 -115 15 -147 21 -445 11 -530 -25 -225 -29 -248 -41
-300 -4 -14 -8 -34 -10 -45 -2 -11 -13 -60 -25 -110 -12 -49 -22 -107 -23
-128 -1 -26 -5 -36 -14 -32 -8 3 -33 5 -56 5 l-43 0 14 78 c8 42 15 140 16
217 2 121 0 140 -14 143 -13 2 -18 -10 -23 -69 -9 -86 -40 -254 -61 -326 -10
-35 -21 -53 -31 -53 -11 0 -14 5 -9 18 6 16 55 225 55 236 0 3 -6 6 -14 6 -9
0 -23 -26 -37 -68 -34 -102 -78 -205 -92 -214 -7 -4 -25 -8 -42 -8 -47 0 -89
60 -133 187 -44 126 -68 148 -59 54 3 -33 4 -61 2 -61 -7 0 -84 129 -109 185
-16 33 -32 69 -38 81 -18 40 -169 489 -175 521 -3 17 -14 39 -24 49 -24 22
-24 25 7 60 52 59 225 337 224 360 -1 5 -14 36 -30 69 l-29 60 -30 -65 c-69
-147 -245 -425 -263 -414 -4 3 -26 8 -48 12 l-40 7 41 45 c23 25 50 63 60 85
11 22 24 47 29 55 5 8 16 33 26 55 9 22 20 49 25 60 5 11 11 29 13 40 2 11 9
33 16 50 17 43 24 214 11 249 -9 23 -16 27 -37 23 -25 -4 -25 -3 -23 42 3 35
0 46 -11 46 -8 0 -17 -11 -18 -25 -11 -77 -75 -293 -97 -326 -14 -20 -25 -35
-26 -33 -5 27 -7 44 -13 107 -4 39 -7 108 -7 152 0 58 -4 84 -15 95 -19 19
-64 20 -64 1 0 -7 -6 -19 -14 -25 -12 -11 -31 -86 -40 -166 -2 -16 -6 -37 -9
-45 -10 -24 -37 -190 -37 -227 0 -37 -21 -43 -26 -7 -2 10 -12 57 -24 104 -28
115 -31 356 -6 445 36 127 60 181 87 196 18 9 26 6 48 -15 30 -29 66 -33 97
-12 31 22 129 172 169 259 20 43 44 110 53 148 16 66 19 69 33 52 50 -57 140
-243 184 -379 21 -66 35 -89 86 -144 l61 -65 -6 57 c-12 120 -46 229 -122 383
-60 123 -62 127 -120 205 -41 55 -116 128 -169 164 l-28 19 29 21 c39 27 139
128 152 153 9 17 7 27 -16 56 -15 20 -29 36 -32 37 -3 0 -16 -21 -30 -47 -14
-26 -48 -83 -76 -126 -40 -62 -53 -75 -62 -65 -6 8 -38 27 -72 43 -33 16 -60
33 -60 38 0 5 8 21 19 35 25 37 37 80 55 192 27 178 24 187 -94 274 -83 61
-82 61 -94 -20 -4 -21 -12 -57 -18 -79 -18 -66 -38 -169 -38 -193 0 -13 -4
-21 -9 -18 -10 7 -45 113 -55 166 -3 19 -8 46 -11 59 -7 39 -7 194 0 214 5 12
2 17 -9 17 -25 0 -19 33 14 68 22 25 35 32 50 27 17 -5 65 5 140 32 8 3 31 6
51 8 21 2 48 11 62 20 36 23 99 107 173 231 68 115 85 175 66 228 -13 32 -12
32 39 -34 121 -156 171 -249 196 -366 l16 -71 48 -10 49 -10 0 46 c0 78 -44
199 -96 269 -14 17 -22 32 -19 32 17 0 -160 235 -242 321 l-44 45 35 46 c39
51 126 218 126 242 0 8 4 17 9 21 5 3 13 20 16 38 4 17 22 95 41 172 42 177
58 352 50 560 -3 88 -8 169 -10 180 -3 11 -8 49 -11 85 -6 67 -10 93 -19 145
-3 17 -10 55 -15 87 -9 59 -58 262 -68 288 -4 8 -7 17 -8 20 -1 3 -4 12 -7 20
-3 8 -15 47 -26 85 -46 155 -152 420 -177 437 -5 4 -6 8 -2 8 4 0 -4 19 -18
43 -13 23 -37 67 -52 97 -15 30 -52 93 -83 139 -30 46 -59 90 -65 99 -5 9 -16
22 -22 30 -7 7 -13 16 -13 20 0 4 -19 27 -41 52 -23 25 -41 47 -41 50 1 5 -51
68 -123 149 -99 113 -343 345 -432 412 -54 41 -101 79 -105 84 -4 6 -8 25 -8
43 0 50 -45 176 -98 272 -57 107 -199 320 -212 320 -6 0 -10 7 -10 15 0 8 -3
15 -8 15 -4 0 -13 12 -20 28 -6 15 -26 42 -42 61 -17 18 -30 37 -30 41 0 4
-13 21 -30 38 -16 18 -30 34 -30 37 0 6 -5 12 -43 56 -12 14 -42 49 -67 79
-88 105 -308 320 -405 395 -21 17 -55 45 -76 63 -20 17 -40 32 -45 32 -5 0
-27 16 -48 36 -22 20 -54 43 -70 51 -17 9 -33 19 -36 23 -3 4 -25 18 -50 30
-25 12 -47 26 -50 31 -3 4 -39 24 -80 44 -41 19 -82 40 -90 45 -33 21 -132 60
-150 60 -11 0 -20 4 -20 9 0 5 -10 11 -22 14 -168 39 -290 52 -358 38z m361
-167 c41 -14 79 -27 84 -28 52 -13 322 -170 419 -244 41 -32 87 -66 102 -77
15 -11 32 -24 38 -30 72 -66 156 -135 165 -135 6 0 11 -4 11 -9 0 -6 15 -24
33 -41 l32 -30 -85 31 c-129 48 -341 113 -472 145 -101 24 -118 31 -129 53 -7
14 -21 35 -31 46 -9 11 -29 43 -44 70 -14 28 -32 54 -40 58 -8 4 -14 13 -14
20 0 7 -9 18 -20 25 -11 7 -20 18 -20 26 0 13 -42 67 -87 111 -21 20 -29 35
-20 35 2 0 37 -12 78 -26z m-5078 -233 c37 -1 67 -5 67 -9 0 -5 -32 -31 -72
-58 -79 -54 -305 -267 -328 -308 -19 -36 -26 -33 -34 15 -5 29 -2 47 7 58 37
43 26 64 -17 30 l-26 -20 0 34 c0 29 -24 113 -47 167 -3 8 -8 25 -10 37 -5 28
37 41 167 49 52 4 96 7 97 8 1 0 30 0 65 -1 34 -1 93 -2 131 -2z m852 -147
l37 -7 -114 -59 c-207 -109 -605 -410 -571 -431 5 -3 48 25 96 63 214 173 562
391 645 405 9 1 32 -4 51 -11 18 -8 37 -11 42 -8 5 3 16 -1 24 -10 13 -13 10
-16 -30 -32 -25 -9 -45 -21 -45 -25 0 -13 10 -11 76 11 61 21 96 20 144 -5
l25 -13 -28 -11 c-16 -6 -33 -11 -38 -11 -5 0 -17 -4 -27 -9 -30 -15 -85 -40
-145 -65 -74 -32 -257 -152 -317 -207 -10 -9 -22 -18 -28 -20 -36 -13 -383
-336 -510 -475 -35 -38 -79 -86 -98 -107 l-34 -37 -27 51 c-16 29 -36 60 -45
70 -10 11 -18 23 -18 28 0 5 -11 29 -25 52 -14 24 -25 49 -25 54 0 6 17 29 38
51 20 23 60 68 87 99 133 151 407 402 546 500 171 120 256 174 266 170 6 -2
28 -7 48 -11z m4640 -103 c172 -42 388 -108 461 -141 68 -31 114 -74 227 -212
39 -49 75 -88 79 -88 4 0 8 -5 8 -10 0 -6 28 -47 63 -91 34 -45 71 -96 82
-114 11 -19 30 -45 43 -59 12 -15 22 -30 22 -35 0 -4 9 -16 20 -26 44 -40 5
-23 -122 52 -73 44 -168 96 -211 117 -77 36 -222 97 -242 100 -5 1 -19 7 -30
13 -21 11 -52 21 -174 54 -75 20 -147 22 -145 4 2 -11 35 -24 144 -56 41 -12
89 -28 107 -35 17 -8 36 -14 43 -14 7 0 26 -6 43 -14 18 -8 68 -28 112 -46
125 -51 353 -159 428 -203 83 -49 142 -104 160 -150 7 -18 92 -144 129 -189
34 -43 16 -43 -49 -2 -32 21 -74 48 -93 60 -34 21 -126 66 -200 97 -60 25
-232 76 -294 86 -118 21 -148 -19 -36 -49 119 -31 227 -74 388 -154 124 -61
149 -75 174 -97 10 -9 31 -22 46 -30 15 -8 29 -16 32 -19 3 -3 21 -17 40 -30
126 -86 423 -360 520 -480 19 -24 47 -57 63 -74 15 -17 53 -64 85 -105 31 -41
68 -87 82 -102 14 -15 34 -44 46 -65 11 -22 43 -75 71 -119 59 -96 58 -94 119
-222 27 -57 52 -103 57 -103 4 0 6 -4 2 -9 -3 -5 7 -36 21 -68 15 -32 28 -62
28 -68 1 -5 9 -27 19 -49 9 -21 17 -44 17 -51 0 -7 11 -43 25 -81 14 -38 32
-96 41 -129 8 -33 19 -76 24 -95 10 -37 38 -167 46 -210 2 -14 9 -47 14 -75
14 -79 39 -273 44 -350 4 -68 4 -69 -9 -30 -17 56 -79 177 -131 258 -44 67
-95 110 -120 100 -15 -6 -19 -33 -5 -33 11 0 88 -115 121 -180 27 -54 78 -198
85 -243 3 -17 9 -57 14 -87 21 -130 1 -366 -42 -485 -46 -128 -178 -355 -206
-355 -4 0 -27 26 -49 58 -23 32 -48 65 -57 72 -9 8 -12 17 -7 24 12 14 22 58
29 116 2 25 11 81 19 125 38 205 37 560 -1 790 -8 50 -15 93 -15 98 0 13 -28
7 -34 -8 -3 -8 -1 -59 4 -113 5 -53 10 -128 10 -166 0 -60 -2 -67 -15 -56 -12
10 -22 10 -39 2 -19 -8 -27 -24 -37 -66 -13 -62 -18 -64 -25 -14 -4 27 -18 96
-39 188 -2 8 -10 44 -18 80 -23 100 -52 203 -97 340 -22 69 -40 142 -40 162 0
31 -4 38 -20 38 -40 0 -45 -39 -21 -162 12 -62 29 -138 38 -168 8 -30 17 -66
20 -80 2 -14 19 -92 37 -175 38 -170 53 -255 62 -335 3 -30 7 -70 10 -87 2
-18 6 -57 9 -85 3 -29 8 -72 11 -96 3 -24 2 -99 -2 -166 l-7 -122 -46 14
c-137 42 -184 65 -236 116 -69 68 -111 123 -173 228 -60 101 -68 120 -77 179
-4 24 -13 58 -20 75 -7 18 -11 34 -9 37 2 2 -1 28 -6 58 -6 30 -13 74 -15 99
-9 78 -16 101 -77 244 -128 302 -186 396 -244 396 -31 0 -40 -23 -25 -58 12
-27 12 -27 -18 4 -39 39 -149 106 -221 133 -72 28 -153 34 -220 19 l-55 -13
-7 -60 c-3 -33 -9 -82 -12 -110 -4 -40 -28 -175 -40 -230 -18 -79 -49 -171
-82 -243 -13 -29 -24 -56 -24 -60 0 -11 -55 -115 -98 -187 -39 -66 -103 -151
-152 -205 l-33 -34 -19 51 c-10 28 -24 53 -31 56 -25 9 -55 -12 -62 -43 -5
-24 -11 -30 -23 -24 -34 15 -90 15 -125 1 l-36 -16 -29 53 c-32 56 -93 116
-118 116 -8 0 -26 12 -39 26 -19 20 -30 25 -50 20 -29 -7 -105 -99 -105 -126
0 -10 -4 -22 -10 -25 -5 -3 -10 -15 -10 -26 0 -25 -3 -24 -51 8 -62 41 -126
53 -249 47 -109 -5 -133 1 -195 45 -5 4 -26 14 -45 21 -19 7 -60 24 -90 38
-113 50 -206 90 -251 107 -43 16 -49 16 -78 1 -43 -23 -41 -49 13 -129 10 -15
16 -30 13 -33 -19 -19 -347 270 -347 305 0 18 -60 232 -68 246 -8 12 -41 192
-48 260 -3 28 -7 56 -10 64 -2 8 -7 44 -10 80 -3 36 -7 77 -10 90 -3 14 -7 63
-9 110 -2 48 -4 91 -5 96 -9 41 2 45 26 9 78 -117 266 -317 374 -398 30 -22
57 -43 60 -47 23 -25 256 -169 275 -169 8 0 16 -4 20 -9 6 -11 112 -61 123
-59 4 1 29 -9 55 -21 26 -12 56 -24 65 -26 9 -1 46 -13 82 -25 88 -30 166 -50
195 -50 13 0 27 -4 30 -10 10 -17 103 -12 124 6 25 22 19 73 -11 96 -67 51
-212 188 -206 194 2 1 26 -2 53 -6 79 -13 244 -5 292 15 60 24 67 64 10 65
-24 0 -89 46 -156 111 -44 42 -50 51 -30 46 142 -32 188 -41 279 -52 130 -15
368 -17 435 -3 75 15 192 74 201 101 4 12 7 27 6 34 -2 7 13 14 35 18 144 21
411 146 460 215 6 9 57 36 112 61 78 34 101 49 106 68 9 35 -7 45 -48 30 -33
-12 -133 -5 -263 17 -316 53 -681 346 -818 655 l-24 54 127 1 c185 1 322 45
459 149 123 92 185 199 180 307 -3 57 -5 63 -25 66 -14 2 -23 -2 -23 -10 0
-15 -159 -93 -233 -114 -198 -56 -324 -73 -517 -70 -130 3 -165 6 -214 24 -93
34 -109 27 -57 -25 33 -33 118 -67 222 -89 92 -20 264 -13 389 15 84 19 84 19
60 -1 -29 -24 -122 -78 -251 -146 -101 -54 -133 -58 -143 -19 -10 38 -28 4
-28 -51 1 -81 90 -314 142 -370 11 -12 20 -25 20 -31 0 -5 23 -32 50 -61 28
-29 50 -55 50 -58 0 -4 17 -20 37 -37 19 -16 43 -38 52 -47 8 -10 21 -18 28
-18 7 0 13 -4 13 -9 0 -8 72 -55 150 -98 62 -34 194 -81 285 -99 81 -17 85
-19 54 -26 -154 -35 -462 -54 -573 -36 -28 4 -67 10 -86 12 -75 10 -177 37
-270 72 -19 7 -42 14 -50 16 -47 9 -222 114 -280 168 -36 33 -68 56 -73 51
-25 -25 95 -163 209 -242 51 -35 227 -119 257 -123 12 -2 29 -6 37 -9 91 -37
164 -48 330 -53 211 -5 205 -3 100 -31 -81 -21 -119 -25 -250 -25 -189 -1
-332 11 -375 31 -11 5 -49 17 -85 26 -36 9 -83 23 -105 32 -60 24 -207 95
-219 104 -13 10 -158 111 -196 136 -35 22 -111 115 -135 165 -51 105 -52 -22
-1 -176 40 -122 93 -236 113 -243 7 -3 10 -9 7 -14 -3 -5 23 -50 57 -100 69
-101 206 -242 286 -295 29 -19 53 -36 53 -38 0 -3 -129 12 -149 18 -9 3 -32 8
-51 12 -42 7 -50 9 -70 17 -8 3 -44 15 -80 27 -36 12 -85 31 -109 41 -24 11
-45 18 -48 15 -3 -2 -21 7 -40 20 -20 13 -42 24 -50 24 -8 0 -28 9 -44 21 -16
11 -29 18 -29 15 0 -4 -19 7 -42 24 -22 16 -47 30 -55 30 -7 0 -13 4 -13 8 0
5 -17 18 -38 30 -21 11 -48 30 -61 41 -13 11 -28 18 -32 15 -5 -3 -9 2 -9 10
0 9 -4 16 -8 16 -9 0 -54 37 -130 108 -31 28 -60 52 -64 52 -5 0 -8 5 -8 11 0
7 -15 26 -32 44 -18 17 -44 48 -58 68 -14 20 -31 37 -37 37 -7 0 -13 8 -13 19
0 10 -10 29 -23 42 -12 13 -28 35 -35 49 -6 14 -23 43 -37 65 -14 22 -28 47
-31 55 -4 8 -19 42 -34 75 -50 107 -63 140 -65 155 -1 8 -10 30 -19 48 -9 17
-14 32 -11 32 4 0 3 6 -1 12 -5 7 -9 19 -10 28 -1 8 -11 53 -22 100 -11 47
-24 101 -28 120 -3 19 -8 38 -11 43 -2 4 -6 35 -9 70 -2 34 -6 80 -8 102 -7
63 -7 325 -1 375 11 90 28 160 41 171 8 6 14 18 14 25 0 20 -44 17 -63 -4 -28
-31 -46 -81 -72 -207 -24 -114 -29 -377 -10 -519 3 -21 6 -41 7 -45 4 -32 -4
-51 -21 -51 -34 0 -60 -49 -97 -177 -2 -7 -13 -13 -24 -13 -29 0 -143 -70
-209 -128 -30 -26 -60 -51 -68 -55 -8 -5 -18 -20 -23 -33 -5 -13 -15 -24 -22
-24 -7 0 -45 -37 -83 -82 -38 -46 -73 -84 -77 -86 -5 -2 -8 -8 -8 -12 0 -5
-10 -20 -22 -33 -13 -13 -47 -55 -76 -93 -28 -38 -57 -75 -63 -82 -17 -21
-199 -292 -199 -297 0 -2 -16 -30 -37 -62 -20 -31 -36 -64 -36 -73 0 -8 -10
-26 -23 -40 -12 -14 -26 -37 -29 -53 -4 -15 -11 -30 -17 -33 -5 -3 -6 4 -3 18
75 307 93 394 82 405 -7 7 -17 9 -24 5 -13 -8 -96 -272 -88 -280 3 -3 1 -10
-4 -16 -9 -11 -69 -220 -98 -341 -8 -33 -16 -67 -18 -75 -17 -64 -37 -147 -50
-215 -15 -74 -20 -97 -28 -150 -2 -11 -6 -25 -10 -32 -4 -6 -4 -18 -1 -26 3
-8 0 -18 -6 -22 -6 -4 -8 -15 -5 -26 4 -10 2 -19 -4 -19 -6 0 -8 -7 -5 -15 3
-8 0 -31 -7 -52 -7 -21 -13 -47 -15 -58 -1 -11 -5 -38 -9 -60 -11 -62 -15 -96
-18 -150 -1 -27 -5 -52 -8 -55 -13 -10 -20 -78 -9 -85 8 -5 6 -14 -4 -30 -9
-13 -18 -51 -20 -84 -3 -34 -7 -65 -10 -70 -3 -4 -7 -54 -10 -110 -2 -56 -5
-103 -7 -105 -2 -2 -57 -6 -122 -8 -91 -3 -121 -8 -134 -21 -13 -13 -14 -19
-3 -31 10 -14 9 -16 -7 -16 -21 0 -63 -27 -63 -41 0 -5 10 -19 21 -30 20 -20
20 -23 5 -31 -18 -10 -21 -39 -6 -54 8 -8 6 -15 -5 -24 -8 -7 -15 -19 -15 -28
0 -21 30 -52 50 -52 12 0 16 -6 13 -22 -8 -51 37 -68 168 -62 l81 3 -5 -36
c-4 -20 -1 -59 5 -86 8 -38 8 -52 -1 -55 -15 -5 -14 -27 2 -52 10 -17 9 -22
-1 -29 -9 -6 -11 -21 -7 -52 3 -24 7 -56 8 -70 1 -14 8 -33 15 -41 10 -13 10
-19 -3 -31 -18 -18 -14 -119 5 -142 8 -10 8 -15 -1 -20 -7 -5 -8 -19 -4 -39 4
-17 9 -62 11 -101 2 -38 7 -86 10 -105 3 -19 7 -48 9 -65 2 -16 9 -50 15 -75
6 -25 13 -65 15 -89 2 -23 11 -54 20 -68 12 -18 14 -28 5 -38 -8 -10 -8 -19
-1 -33 6 -11 7 -22 4 -26 -3 -3 1 -14 10 -24 10 -11 14 -26 10 -40 -3 -12 -2
-30 3 -39 4 -10 9 -25 10 -33 4 -28 29 -115 34 -120 3 -3 6 -12 6 -20 0 -31
16 -80 25 -80 6 0 8 -4 4 -10 -3 -5 -2 -17 4 -27 13 -26 34 -77 35 -85 1 -3 4
-9 8 -13 4 -4 4 -13 1 -21 -3 -8 0 -14 6 -14 6 0 11 -9 11 -19 0 -11 5 -23 10
-26 6 -3 10 -15 10 -26 0 -10 5 -19 10 -19 6 0 10 -9 10 -20 0 -30 123 -273
155 -306 11 -11 21 -26 23 -34 2 -7 13 -27 25 -44 22 -32 25 -36 55 -72 9 -12
30 -38 46 -58 15 -20 35 -36 43 -36 8 0 12 -4 8 -9 -3 -6 3 -15 14 -20 11 -6
22 -20 26 -30 3 -10 21 -26 40 -36 19 -9 35 -21 35 -26 0 -16 88 -89 108 -89
5 0 15 -6 21 -14 7 -8 29 -22 49 -32 25 -12 32 -19 20 -22 -9 -2 -63 16 -120
39 -57 24 -118 42 -136 42 -17 -1 -34 3 -37 7 -3 5 -27 12 -53 15 -26 4 -56
10 -67 15 -11 5 -63 23 -115 41 -52 17 -99 35 -105 39 -5 4 -27 10 -47 14 -21
4 -38 11 -38 17 0 5 -10 14 -22 19 -24 10 -36 18 -105 63 -23 15 -46 27 -52
27 -6 0 -11 3 -11 8 0 4 -8 12 -19 17 -10 6 -52 36 -93 68 -41 31 -80 57 -86
57 -7 0 -12 3 -12 8 0 4 -56 65 -125 135 -69 71 -125 132 -125 137 0 5 -9 12
-20 15 -11 3 -20 10 -20 15 0 12 -56 94 -75 110 -8 7 -15 19 -15 26 0 8 -4 14
-10 14 -5 0 -10 4 -10 10 0 5 -20 37 -44 72 -24 35 -69 113 -101 173 -65 123
-96 180 -112 210 -6 11 -17 35 -24 54 -7 18 -23 49 -36 68 -13 19 -21 38 -18
42 2 5 -8 33 -24 64 -16 31 -32 68 -36 84 -3 15 -15 46 -26 70 -10 23 -19 47
-19 53 0 6 -5 21 -12 33 -7 12 -13 27 -14 32 -5 27 -48 161 -54 170 -4 6 -11
31 -14 57 -4 26 -12 50 -17 54 -6 3 -8 12 -5 19 2 7 -1 23 -8 37 -7 13 -13 30
-13 38 -1 22 -11 72 -16 77 -3 2 -38 -19 -78 -48 -41 -28 -87 -58 -103 -67
-16 -10 -50 -35 -76 -57 -42 -36 -68 -57 -138 -112 -13 -10 -42 -35 -65 -56
-23 -22 -67 -60 -97 -85 -30 -26 -64 -55 -75 -65 -45 -42 -198 -135 -230 -141
-32 -6 -36 -11 -50 -59 -8 -29 -16 -61 -18 -72 -2 -11 -7 -27 -10 -35 -17 -47
-26 -83 -22 -90 3 -5 1 -11 -5 -15 -5 -3 -10 -15 -10 -25 0 -23 -20 -70 -30
-70 -4 0 -12 33 -19 73 -39 228 -69 317 -110 317 -6 0 -11 4 -11 9 0 18 -51
17 -93 -2 -47 -22 -54 -36 -77 -159 -8 -43 -35 -143 -48 -178 -3 -8 -7 -19 -7
-25 -1 -5 -11 -31 -23 -57 -12 -26 -28 -69 -36 -95 -16 -52 -80 -225 -95 -258
-8 -17 -33 -90 -36 -105 -1 -3 -9 -22 -18 -43 -9 -21 -16 -41 -15 -45 1 -4
-11 -32 -25 -62 -15 -30 -27 -60 -27 -66 0 -5 -9 -29 -20 -52 -11 -22 -20 -48
-20 -57 0 -8 -5 -23 -10 -33 -23 -40 -70 -155 -70 -172 0 -11 -4 -21 -9 -24
-4 -3 -14 -27 -22 -53 -7 -27 -19 -59 -26 -73 -7 -14 -13 -33 -13 -42 0 -9 -5
-20 -10 -23 -6 -4 -10 -15 -8 -24 2 -10 -3 -30 -9 -44 -21 -43 -29 -68 -47
-132 -9 -33 -22 -78 -28 -100 -6 -22 -19 -65 -29 -95 -9 -30 -29 -100 -44
-155 -15 -55 -31 -109 -35 -120 -17 -43 -31 -106 -25 -115 4 -6 -1 -17 -9 -26
-9 -8 -16 -26 -16 -39 0 -13 -4 -26 -9 -29 -5 -3 -11 -20 -14 -38 -3 -18 -10
-49 -16 -68 -5 -19 -15 -55 -22 -80 -6 -25 -15 -54 -20 -65 -9 -22 -27 -92
-36 -140 -3 -16 -9 -34 -13 -40 -4 -5 -11 -28 -15 -50 -5 -22 -10 -44 -11 -50
-2 -5 -13 -53 -24 -105 -12 -52 -26 -102 -30 -112 -5 -9 -12 -40 -16 -70 -4
-29 -11 -58 -16 -65 -5 -6 -8 -20 -7 -30 1 -10 -3 -31 -10 -47 -6 -16 -9 -31
-6 -34 2 -3 1 -10 -4 -16 -4 -6 -16 -45 -25 -86 -10 -41 -22 -85 -28 -97 -6
-12 -8 -28 -5 -36 3 -8 2 -18 -3 -23 -8 -8 -46 -136 -58 -194 -2 -14 -8 -30
-13 -35 -4 -6 -11 -35 -15 -65 -4 -30 -10 -60 -15 -65 -10 -13 -26 -108 -40
-230 -15 -136 -17 -168 -21 -331 -2 -124 -5 -148 -16 -137 -7 7 -11 16 -8 21
2 4 0 43 -6 87 -11 91 -19 515 -9 530 7 12 6 5 15 100 7 81 14 139 22 185 3
14 6 39 8 55 2 17 6 37 9 45 7 20 38 171 47 236 5 28 13 61 19 73 7 12 9 26 6
31 -3 5 -1 11 4 14 9 6 21 58 35 147 2 15 9 36 16 49 6 12 9 24 6 27 -3 4 -1
12 5 20 6 7 9 22 6 33 -3 11 -2 20 2 20 9 0 41 127 41 162 0 13 6 32 14 43 7
11 17 40 21 65 4 25 14 62 21 83 8 21 16 61 19 89 2 29 8 54 13 57 4 3 9 16
10 29 5 53 7 62 15 62 5 0 7 7 4 15 -4 8 -2 17 4 20 5 4 7 10 4 14 -2 5 0 23
6 42 12 42 31 127 33 154 2 11 7 29 12 40 6 11 10 41 8 67 -1 30 3 49 11 52
12 4 31 105 26 134 -1 8 3 20 10 28 6 7 9 25 7 39 -3 14 -2 28 2 30 4 3 11 26
16 52 4 27 8 50 9 53 18 66 26 182 14 196 -9 11 -8 18 4 32 14 16 29 88 32
162 1 19 5 42 8 50 11 30 15 100 6 106 -6 4 -6 11 1 19 6 7 12 47 14 89 2 42
6 79 10 83 3 3 6 31 6 62 0 31 5 73 11 94 7 28 7 42 -1 52 -7 8 -7 15 -1 19 5
4 10 14 10 24 1 40 11 197 12 197 1 0 3 25 4 55 2 30 5 68 9 84 3 17 0 36 -6
43 -8 10 -7 13 2 13 9 0 11 13 7 50 -3 27 -2 52 2 54 4 3 9 38 10 78 1 40 4
102 7 138 2 36 6 99 8 140 3 41 5 75 6 75 1 0 3 20 5 45 1 25 8 86 14 135 6
50 13 122 17 160 3 39 8 81 11 95 5 29 12 90 18 172 2 32 7 62 10 68 4 6 5 17
2 24 -3 7 1 39 8 72 20 87 27 133 30 189 1 28 5 57 8 65 7 20 26 139 27 173 2
59 5 77 13 77 5 0 7 8 5 18 -1 9 0 22 4 28 4 5 9 32 13 60 3 27 10 66 16 88 6
21 8 44 5 52 -3 8 -1 14 3 14 7 0 24 89 26 137 0 6 4 15 8 19 4 4 7 17 7 28 0
12 13 73 29 136 17 71 25 119 19 127 -5 7 -5 12 2 15 10 3 48 138 54 188 1 9
6 21 10 28 4 7 5 25 1 39 -4 16 -2 29 6 33 13 9 91 289 83 302 -3 4 -1 8 4 8
10 0 42 107 42 140 0 11 3 20 8 20 4 0 16 30 26 68 11 37 22 72 26 77 8 11 23
63 25 81 0 6 5 18 11 25 6 8 19 37 28 64 10 28 30 74 44 104 14 30 25 62 25
72 -1 10 5 20 13 23 8 3 14 17 14 31 0 14 4 25 9 25 5 0 13 10 17 23 3 12 24
57 45 100 22 43 39 85 39 93 0 8 3 14 8 14 4 0 16 19 27 43 11 23 43 84 72
136 29 51 53 97 53 101 0 5 4 10 8 12 5 2 23 30 42 63 19 33 41 71 50 85 10
14 43 66 76 115 95 146 145 206 196 238 34 21 45 33 36 39 -20 12 -50 10 -81
-6 -25 -14 -26 -13 -18 2 28 52 190 208 319 307 7 5 21 18 30 28 9 9 20 17 24
17 10 0 149 99 164 116 6 8 13 11 16 9 3 -3 13 4 23 15 10 11 22 20 27 20 11
0 92 52 96 63 2 4 8 7 14 7 6 0 26 11 44 25 18 14 37 25 43 25 6 0 11 4 11 9
0 5 12 13 28 19 15 5 39 21 53 34 14 13 41 31 60 38 65 27 119 62 119 77 0 10
6 12 19 8 13 -4 24 1 34 15 8 12 21 20 28 19 16 -2 45 10 104 45 49 29 109 59
153 76 17 7 32 16 32 21 0 5 5 9 11 9 22 0 199 90 199 101 0 6 6 9 14 6 14 -6
130 46 141 63 3 5 16 10 29 10 13 0 31 9 41 20 10 12 25 18 33 15 8 -3 20 -2
26 3 6 5 30 14 54 22 23 7 42 17 42 22 0 4 10 8 22 8 24 0 110 30 118 41 3 3
24 10 48 14 24 4 45 12 48 18 2 7 19 12 38 13 18 0 52 10 75 21 23 12 50 19
60 16 10 -3 22 0 25 6 4 6 20 11 35 11 15 0 31 4 37 8 5 5 41 14 79 21 89 16
211 38 250 46 17 4 41 6 54 6 12 -1 28 2 33 5 6 4 38 8 72 9 33 2 86 5 116 9
151 16 411 22 530 11 25 -2 92 -7 150 -10 58 -4 130 -8 160 -10 30 -2 78 -6
105 -10 28 -3 73 -8 100 -11 28 -3 78 -10 113 -15 35 -5 67 -7 72 -4 5 3 11 1
15 -5 3 -6 18 -10 33 -9 15 0 47 -5 72 -11 24 -6 56 -10 70 -9 14 1 39 -4 55
-10 17 -7 45 -13 62 -14 18 -1 33 -5 33 -8 0 -4 19 -10 43 -14 23 -4 47 -9 52
-10 6 -2 21 -6 35 -8 14 -3 41 -11 60 -17 19 -6 42 -13 50 -15 8 -2 44 -13 80
-24 36 -11 83 -25 105 -32 22 -6 47 -14 55 -17 8 -3 20 -6 25 -6 6 -1 26 -9
45 -18 19 -9 51 -23 70 -31 81 -34 138 -60 185 -84 76 -39 236 -147 269 -182
32 -34 56 -40 56 -15 0 18 -94 113 -161 164 -46 35 -57 51 -79 125 -7 22 -16
44 -21 49 -5 6 -9 16 -9 23 0 7 -12 37 -26 66 -14 28 -32 74 -40 100 -8 26
-22 51 -29 54 -8 3 -12 9 -10 14 6 8 -41 109 -55 119 -6 4 -30 66 -30 77 0 4
11 2 165 -36z m-2460 -2708 c7 -231 32 -403 76 -516 10 -26 21 -60 24 -76 9
-51 103 -254 157 -338 96 -149 130 -195 197 -265 79 -83 79 -82 -4 -94 -27 -4
-54 -8 -60 -10 -5 -1 -55 -10 -110 -19 -55 -9 -119 -20 -143 -26 -23 -5 -59
-12 -80 -15 -20 -3 -41 -8 -45 -11 -5 -3 -23 -7 -40 -10 -47 -7 -178 -40 -268
-69 -61 -19 -91 -23 -124 -18 -36 5 -45 3 -45 -8 0 -24 31 -45 101 -72 180
-68 533 -51 773 36 98 35 180 80 222 120 40 37 54 31 114 -48 24 -32 59 -72
77 -90 56 -54 107 -59 65 -6 -12 15 -34 45 -49 67 -14 22 -29 42 -32 45 -7 5
-35 69 -97 215 l-34 80 32 -40 c42 -53 191 -201 249 -248 25 -20 76 -53 113
-72 96 -50 148 -38 171 39 l10 34 85 -24 c47 -13 99 -29 117 -34 28 -10 82
-11 228 -8 17 0 77 -7 134 -15 93 -15 107 -15 122 -2 13 13 18 13 27 3 6 -7
10 -17 11 -23 0 -16 31 -18 57 -4 13 7 25 10 27 8 2 -2 22 -37 46 -77 86 -148
216 -258 366 -309 72 -25 93 -28 205 -27 126 1 219 18 282 50 34 18 28 34 -12
34 -32 0 -144 41 -258 95 -40 19 -75 35 -78 35 -8 0 -263 128 -284 143 -20 14
-20 15 14 31 42 20 70 20 86 2 8 -11 18 -12 35 -6 22 9 23 7 18 -25 -4 -27 -1
-35 17 -45 55 -29 146 20 235 128 77 93 145 192 145 210 0 6 4 12 8 14 14 5
103 189 138 285 57 157 73 232 83 381 l6 103 108 -123 c142 -162 133 -151 237
-291 50 -67 97 -130 105 -140 8 -9 15 -20 15 -23 0 -5 113 -174 238 -354 36
-52 48 -115 83 -421 12 -107 26 -198 30 -203 5 -5 14 -4 23 4 13 10 17 10 20
-1 12 -38 29 -149 28 -183 -1 -22 2 -44 7 -50 11 -15 22 -61 27 -116 2 -25 8
-88 14 -140 8 -88 5 -436 -5 -470 -2 -8 -9 -58 -14 -110 -24 -217 -38 -292
-68 -383 -22 -63 -24 -81 -15 -100 6 -12 14 -38 17 -57 6 -35 35 -89 64 -118
9 -10 44 -51 76 -92 33 -41 63 -77 66 -80 12 -10 66 -126 87 -185 65 -189 57
-354 -25 -555 -108 -262 -216 -389 -539 -638 -47 -36 -234 -162 -241 -162 -3
0 -17 -9 -32 -19 -91 -65 -443 -234 -561 -270 -58 -17 -172 -54 -255 -81 -82
-26 -179 -56 -215 -65 -127 -33 -426 -118 -495 -140 -98 -33 -253 -102 -286
-128 -34 -28 -129 -149 -157 -202 -18 -32 -38 -47 -121 -91 -204 -105 -216
-118 -311 -317 -29 -60 -54 -106 -56 -104 -2 2 -8 24 -13 48 -32 147 -65 223
-123 278 -43 42 -81 61 -173 86 -147 40 -219 63 -523 165 l-323 109 -3 74 c-6
121 -8 124 -229 232 -106 52 -202 103 -213 112 -16 14 -23 33 -27 78 l-5 60
101 2 c55 1 102 5 106 10 3 4 22 8 41 9 19 0 50 3 69 5 30 5 39 -1 87 -47 83
-82 133 -96 399 -114 129 -8 164 -14 253 -44 57 -19 131 -48 165 -64 83 -39
192 -79 247 -91 56 -13 181 -14 212 -2 13 5 48 17 78 27 30 9 113 49 183 86
164 89 242 118 313 118 60 0 87 -11 219 -90 140 -84 240 -98 337 -49 54 28
151 126 179 182 12 23 25 44 29 47 4 3 29 50 55 105 26 55 52 108 56 117 5 10
9 27 9 38 0 11 4 20 8 20 7 0 29 58 49 125 25 88 53 201 58 236 3 24 9 58 11
74 20 110 27 350 15 450 -7 50 -12 102 -11 118 0 15 -5 27 -10 27 -6 0 -9 4
-6 9 11 17 -53 329 -79 385 -7 16 -11 35 -8 42 2 6 0 15 -6 19 -6 3 -11 17
-11 31 0 44 -71 205 -107 240 -51 52 -90 45 -204 -33 -37 -25 -75 -43 -85 -41
-12 2 -37 37 -66 93 -54 100 -106 159 -155 176 -85 28 -176 3 -318 -86 -106
-67 -171 -89 -218 -73 -17 6 -63 34 -102 63 -102 77 -137 95 -187 97 -70 3
-142 -39 -260 -151 -198 -188 -242 -221 -297 -221 -20 0 -43 6 -51 13 -17 14
-70 83 -70 92 0 3 -12 24 -27 48 -15 23 -36 60 -47 81 -11 22 -45 65 -75 96
-68 69 -118 86 -187 65 -54 -16 -131 -73 -164 -120 -14 -20 -32 -44 -41 -53
-24 -26 -83 -121 -85 -139 -2 -9 -7 -19 -12 -22 -12 -8 -44 -71 -36 -71 4 0 1
-7 -6 -15 -7 -8 -9 -15 -5 -15 5 0 1 -8 -7 -17 -22 -26 -102 -263 -114 -340
-3 -21 -8 -41 -11 -45 -2 -5 1 -8 7 -8 6 0 4 -10 -6 -25 -9 -13 -14 -30 -11
-37 2 -7 0 -26 -4 -41 -28 -98 -31 -451 -5 -593 5 -25 3 -24 -39 13 -24 21
-46 46 -50 56 -3 9 -13 17 -21 17 -8 0 -13 3 -12 8 3 8 -52 85 -64 90 -5 2 -8
8 -8 13 0 16 -64 99 -76 99 -7 0 -10 8 -7 19 3 13 -2 23 -17 31 -12 6 -19 17
-17 24 3 7 -4 23 -14 37 -10 13 -19 29 -19 34 0 6 -10 26 -22 45 -12 19 -23
40 -24 46 -1 6 -14 36 -29 68 -15 31 -28 64 -29 73 -2 10 -8 19 -14 21 -7 2
-10 8 -7 12 3 5 -4 25 -15 45 -11 19 -20 43 -20 53 0 30 -37 136 -49 140 -6 2
-8 14 -5 28 4 14 1 31 -6 39 -7 9 -10 18 -7 21 3 3 -1 23 -8 45 -8 21 -12 39
-8 39 3 0 1 6 -5 13 -5 6 -13 33 -16 59 -4 26 -15 68 -26 92 -12 30 -15 48 -9
52 7 4 7 10 0 17 -6 6 -11 28 -11 49 0 21 -4 38 -8 38 -5 0 -9 24 -8 53 0 79
-14 179 -29 210 -8 15 -12 33 -10 40 9 27 14 95 7 101 -3 4 -5 24 -3 45 1 22
-3 42 -9 46 -8 5 -8 11 1 21 9 11 9 17 0 28 -12 14 -12 22 -8 171 2 50 0 95
-2 100 -9 16 -8 105 0 111 5 2 6 10 4 17 -2 7 -6 24 -9 39 l-6 27 92 -4 c51
-2 170 -6 263 -10 297 -10 445 -20 600 -41 38 -5 59 -7 170 -18 28 -3 78 -10
112 -16 34 -6 75 -12 90 -14 15 -2 74 -11 130 -21 137 -22 258 -25 258 -6 0
15 -14 25 -60 43 -25 9 -27 12 -10 15 56 11 65 15 65 28 0 8 -9 15 -20 15 -28
0 -25 14 5 28 43 20 33 35 -45 64 l-45 16 38 1 c41 1 43 4 19 45 -12 20 -35
35 -82 52 -87 32 -281 85 -291 79 -4 -3 -10 -1 -13 4 -4 5 -17 8 -31 6 -14 -1
-28 1 -30 5 -3 5 -29 11 -58 15 -28 3 -65 10 -82 15 -28 8 -95 19 -155 25 -14
1 -32 5 -40 8 -24 10 -251 39 -257 33 -3 -2 -15 -1 -27 3 -11 5 -57 12 -101
16 -44 4 -98 9 -120 11 -22 2 -109 7 -193 10 -133 6 -152 9 -148 23 5 18 18
144 21 211 1 25 3 47 5 50 1 3 3 25 4 50 1 25 5 61 9 80 4 19 9 46 11 60 5 30
27 119 34 140 3 8 6 17 7 20 0 3 12 37 25 75 13 39 25 72 25 75 1 3 7 18 14
34 6 16 13 36 14 45 2 9 18 47 35 85 18 38 32 70 32 72 0 19 116 235 166 310
35 52 64 97 64 99 0 13 264 347 353 445 18 20 64 71 102 113 39 43 90 97 115
120 102 96 135 125 138 122 2 -2 5 -56 7 -122z m-4201 -165 c-110 -229 -149
-301 -174 -319 -31 -23 -385 -91 -448 -87 l-43 3 111 140 c61 77 114 145 119
151 5 6 39 54 75 107 76 109 54 100 271 117 71 6 131 13 134 16 2 2 7 2 9 -1
3 -2 -22 -60 -54 -127z m6366 -1300 c0 -5 -9 -4 -20 2 -21 11 -25 22 -13 34 8
7 33 -21 33 -36z m2477 -681 c25 -40 62 -97 82 -127 19 -30 43 -72 53 -92 16
-37 16 -37 -19 -105 -40 -77 -124 -202 -154 -229 -15 -14 -22 -15 -31 -6 -16
16 11 153 41 215 33 68 35 98 12 204 -11 54 -23 112 -26 128 -2 17 -9 45 -14
63 -14 47 2 32 56 -51z m-7063 -1190 c17 -12 16 -16 -15 -63 -18 -27 -60 -77
-92 -110 -77 -81 -94 -109 -244 -404 -312 -615 -433 -850 -523 -1015 -57 -104
-135 -251 -173 -325 -38 -74 -72 -137 -76 -140 -4 -3 -24 -30 -43 -60 -56 -86
-91 -115 -140 -111 -55 4 -84 107 -75 269 10 192 58 365 153 557 54 111 66
131 140 260 86 148 99 191 73 239 -24 46 -24 67 2 119 47 94 95 151 300 357
222 224 327 299 565 406 29 13 93 30 120 33 5 1 18 -5 28 -12z m7139 -479 c44
-43 85 -79 90 -81 12 -4 -78 -179 -155 -300 -67 -106 -79 -121 -89 -105 -4 7
-5 16 -3 20 6 9 15 71 38 248 15 114 11 162 -23 270 -11 36 -21 66 -21 68 0 1
19 -8 42 -20 22 -13 77 -58 121 -100z m-3981 -489 c26 -6 52 -8 58 -4 6 4 17
2 24 -4 7 -6 32 -12 57 -14 24 -2 51 -6 59 -9 34 -12 124 -30 149 -30 14 0 33
-6 41 -12 8 -7 53 -25 100 -40 47 -15 99 -33 115 -40 17 -7 46 -19 65 -26 19
-8 44 -20 55 -27 11 -7 27 -13 36 -13 9 0 22 -7 29 -15 7 -8 21 -15 31 -15 11
0 19 -4 19 -8 0 -5 17 -15 37 -23 20 -8 46 -19 57 -26 12 -7 37 -20 56 -30 19
-10 39 -24 43 -30 4 -7 17 -13 27 -13 10 0 22 -5 26 -11 3 -6 22 -17 40 -25
19 -8 34 -18 34 -23 0 -4 19 -21 43 -37 23 -16 57 -41 75 -56 18 -15 39 -28
46 -28 8 0 16 -6 19 -13 3 -8 38 -39 79 -69 40 -31 93 -76 118 -100 25 -24 54
-50 65 -58 12 -8 40 -36 64 -63 l44 -47 -23 -73 c-12 -39 -33 -96 -46 -125
-13 -29 -24 -55 -24 -59 0 -20 -108 -215 -146 -263 -66 -85 -112 -113 -188
-118 -59 -4 -65 -1 -210 72 -82 41 -169 78 -192 82 -72 11 -168 -21 -372 -121
-287 -141 -345 -145 -617 -35 -278 112 -354 132 -550 144 -141 9 -213 23 -269
54 -61 33 -68 50 -27 58 17 4 31 11 31 17 0 6 3 7 6 4 4 -4 19 0 33 7 14 7 43
21 64 30 20 8 37 20 37 26 0 5 7 10 16 10 40 0 234 161 234 194 0 22 -9 20
-54 -10 -37 -26 -38 -26 -56 -6 -10 11 -36 23 -57 27 -49 11 -42 8 -88 29 -22
9 -48 18 -57 19 -10 1 -18 5 -18 9 0 4 -5 8 -10 8 -6 0 -23 8 -38 18 -15 10
-61 40 -102 67 -101 66 -134 102 -137 151 -2 21 -6 55 -10 74 -9 52 -6 430 4
464 8 25 17 32 64 43 29 8 70 18 89 23 19 5 55 14 80 20 25 7 58 18 73 26 16
8 32 12 37 9 7 -4 94 7 160 21 137 29 550 37 652 13z m-3252 -386 c0 -7 5 -13
10 -13 6 0 10 -4 10 -10 0 -5 12 -26 26 -47 14 -21 32 -52 40 -69 9 -18 31
-50 50 -72 19 -22 34 -44 34 -50 0 -5 15 -25 33 -44 17 -19 38 -45 45 -59 7
-13 53 -67 102 -119 50 -52 90 -98 90 -101 0 -4 10 -14 23 -22 12 -9 39 -32
60 -51 21 -20 42 -36 48 -36 5 0 9 -5 9 -11 0 -12 26 -36 90 -81 25 -18 52
-39 60 -48 29 -31 204 -160 217 -160 4 0 16 -9 27 -19 38 -35 237 -141 265
-141 12 0 21 -5 21 -10 0 -12 104 -60 129 -60 9 0 27 -7 39 -16 12 -8 26 -12
32 -9 5 3 26 -3 47 -13 35 -18 127 -42 213 -57 19 -4 47 -11 62 -16 28 -11 28
-12 43 -169 6 -67 14 -126 25 -210 13 -95 17 -125 24 -178 3 -24 8 -48 12 -54
4 -6 9 -34 11 -62 2 -28 7 -53 11 -56 4 -3 8 -16 10 -30 1 -14 8 -47 14 -75 7
-27 11 -54 10 -59 -2 -4 3 -14 9 -22 6 -8 9 -14 6 -14 -3 0 1 -24 10 -53 8
-28 16 -56 18 -62 9 -42 19 -72 28 -82 5 -7 7 -13 4 -13 -5 0 35 -123 57 -174
7 -17 19 -47 26 -66 24 -64 50 -119 60 -125 6 -4 8 -11 5 -16 -4 -5 1 -12 9
-15 9 -3 14 -10 11 -14 -5 -9 31 -80 87 -172 46 -75 137 -186 195 -237 58 -52
48 -53 -21 -1 -29 22 -72 47 -97 55 -191 67 -442 273 -574 470 -33 50 -89 138
-123 198 -35 59 -70 107 -77 107 -7 0 -18 -7 -25 -15 -13 -16 -9 -44 20 -135
13 -40 20 -105 24 -240 7 -202 12 -264 27 -355 5 -33 12 -77 14 -98 5 -39 32
-160 42 -187 3 -8 7 -21 9 -28 11 -55 59 -192 67 -192 6 0 8 -3 4 -6 -8 -8 44
-111 91 -183 87 -131 230 -250 347 -286 30 -10 52 -22 49 -26 -3 -5 -9 -7 -14
-4 -5 3 -23 8 -42 10 -57 9 -62 11 -102 28 -22 10 -50 18 -63 19 -13 2 -23 6
-23 10 0 4 -5 8 -10 8 -6 0 -27 11 -48 24 -20 12 -48 27 -62 31 -14 4 -35 18
-47 30 -12 12 -39 30 -60 41 -21 10 -52 33 -69 49 -17 17 -51 49 -76 71 -48
43 -188 210 -188 223 0 4 -8 16 -17 27 -54 59 -148 289 -173 421 -10 48 -16
60 -27 56 -43 -17 36 -336 120 -484 13 -24 34 -62 47 -84 12 -22 28 -47 35
-55 8 -9 27 -35 43 -59 35 -51 171 -191 186 -191 6 0 16 -8 23 -19 14 -23 130
-101 149 -101 8 0 17 -7 20 -15 4 -8 14 -15 23 -15 17 -1 51 -23 51 -34 0 -10
-86 -7 -117 5 -15 6 -48 13 -73 16 -38 4 -96 14 -212 38 -42 9 -236 78 -270
96 -21 11 -38 18 -38 14 0 -3 -15 5 -33 19 -19 15 -39 26 -45 26 -7 0 -12 4
-12 9 0 5 -8 11 -17 14 -37 10 -192 134 -288 231 -164 164 -309 374 -424 611
-29 61 -58 113 -65 117 -21 14 -55 8 -66 -11 -16 -31 -5 -225 19 -331 32 -141
61 -251 76 -285 7 -16 21 -52 30 -80 10 -27 38 -85 62 -129 34 -63 36 -85 3
-45 -3 3 -18 23 -35 44 -16 21 -37 46 -45 55 -34 35 -149 220 -192 310 -46 94
-102 234 -151 380 -67 194 -155 601 -172 789 -3 35 -8 68 -12 74 -3 5 -7 33
-9 61 -2 28 -5 74 -7 101 -6 73 -17 249 -22 335 -10 175 1 580 20 710 3 19 12
97 20 173 8 76 17 148 20 160 3 12 10 63 15 112 4 50 11 99 13 110 4 18 11 61
24 155 2 19 6 42 7 50 2 8 6 38 10 65 4 28 10 61 12 75 5 34 21 167 23 194 1
14 30 -26 31 -41z m7182 -924 c39 -5 73 -10 75 -12 1 -2 -8 -39 -21 -83 -26
-89 -22 -86 -126 -72 -30 4 -86 10 -125 14 -38 4 -76 8 -85 9 -8 2 -32 4 -53
4 l-38 1 7 53 c13 103 5 98 160 96 74 0 167 -5 206 -10z m-252 -410 c118 -18
221 -38 228 -44 12 -11 93 -217 157 -398 43 -121 68 -303 67 -484 -1 -317 -76
-537 -252 -735 -49 -56 -64 -61 -55 -17 18 82 22 144 10 151 -7 4 -10 18 -8
33 8 41 -6 97 -24 93 -10 -2 -23 -33 -38 -95 -23 -91 -82 -218 -131 -284 l-26
-34 7 80 c10 124 17 260 19 380 1 91 -2 116 -17 138 -10 15 -15 32 -12 37 4 6
3 19 0 30 -7 23 -45 28 -45 6 0 -26 -49 -181 -91 -289 -42 -108 -58 -123 -59
-51 0 59 -42 238 -69 299 -5 11 -19 47 -32 80 -12 33 -30 83 -41 110 -23 60
-56 233 -58 301 -3 101 93 415 196 641 8 17 14 34 14 39 0 9 31 44 39 44 3 0
103 -14 221 -31z m-4630 -304 c17 -4 32 -11 35 -16 4 -5 15 -9 26 -9 10 0 27
-4 37 -10 16 -9 228 -83 437 -151 74 -25 309 -93 350 -102 38 -9 87 -51 109
-95 20 -40 61 -173 70 -229 1 -7 5 -16 9 -19 4 -4 7 -21 7 -37 0 -38 44 -114
71 -122 13 -4 28 0 41 11 11 11 65 109 120 220 l101 201 81 50 c45 27 121 67
170 88 48 22 91 45 93 53 4 10 13 6 34 -14 l29 -28 -28 -18 c-15 -11 -67 -40
-117 -65 -114 -58 -245 -143 -245 -160 0 -19 8 -17 61 17 26 17 116 68 200
115 l154 83 24 -24 c25 -23 25 -24 7 -61 -50 -105 -183 -321 -297 -482 -85
-121 -335 -408 -346 -398 -10 11 106 438 168 615 33 96 34 102 15 102 -33 0
-174 -449 -226 -722 l-11 -57 -32 19 c-27 17 -31 24 -29 55 2 20 -15 95 -42
182 -24 82 -52 177 -61 213 -25 103 -109 350 -118 350 -22 0 -15 -43 27 -178
25 -81 66 -222 91 -314 25 -92 54 -194 64 -227 l19 -61 -21 15 c-31 22 -66 19
-122 -11 l-50 -26 -125 77 c-68 43 -138 87 -154 99 -120 83 -281 232 -386 356
-30 36 -57 67 -60 70 -46 45 -250 351 -333 501 l-37 66 20 26 20 25 105 -49
c97 -46 319 -126 666 -239 80 -26 160 -55 178 -65 25 -13 36 -14 45 -5 20 20
-36 56 -125 79 -111 28 -343 102 -499 157 -104 38 -324 129 -339 141 -3 2 6
14 19 28 23 24 23 24 47 5 13 -10 37 -22 53 -25z m-247 -184 c24 -59 27 -74
18 -107 -5 -22 -15 -82 -22 -134 l-13 -95 -13 34 c-8 19 -16 48 -18 64 -2 16
-8 34 -14 40 -5 5 -7 16 -4 23 3 8 0 35 -6 61 -6 27 -13 65 -16 85 -2 21 -6
42 -7 47 -3 9 46 48 62 50 3 1 18 -30 33 -68z m5426 -155 c-1 -29 -17 -75 -19
-56 -1 8 -3 32 -6 52 -4 31 -2 36 11 32 8 -4 15 -16 14 -28z m-3050 -157 c18
-18 35 -39 101 -119 25 -30 47 -57 50 -60 28 -26 207 -275 224 -310 4 -8 15
-31 25 -50 l19 -35 -92 -21 c-50 -11 -142 -38 -204 -58 -62 -21 -115 -36 -117
-34 -5 4 -7 16 -25 153 -14 107 -19 140 -42 265 -11 63 -22 129 -25 145 -3 17
-16 81 -29 142 -13 62 -24 117 -24 123 0 5 28 -21 62 -58 34 -37 69 -74 77
-83z m-2224 29 c22 -36 38 -73 37 -88 -1 -14 -6 -74 -12 -135 -5 -60 -10 -159
-11 -220 -1 -60 -5 -119 -10 -130 -4 -11 -8 -14 -8 -6 -1 21 -34 91 -43 91 -4
0 -5 7 -2 15 4 8 1 22 -6 30 -7 8 -9 15 -6 15 4 0 0 10 -8 22 -9 12 -16 33
-16 46 0 13 -4 31 -9 41 -11 19 37 393 49 386 4 -2 24 -32 45 -67z m5228 -735
c-10 -15 -25 -28 -33 -28 -10 0 -19 -24 -30 -80 -19 -94 -51 -198 -58 -190 -3
3 -11 41 -17 85 l-11 79 29 48 c46 74 92 180 113 262 l19 74 3 -111 c2 -92 0
-115 -15 -139z m-5690 -188 c33 -49 66 -94 73 -98 8 -4 14 -13 14 -20 0 -6 34
-44 76 -84 79 -77 195 -152 276 -179 26 -8 50 -19 52 -23 3 -4 8 -54 11 -111
3 -56 8 -106 10 -110 2 -4 7 -42 11 -86 4 -43 10 -86 15 -95 5 -9 6 -19 3 -21
-4 -4 5 -75 21 -173 2 -11 6 -38 9 -60 4 -22 9 -51 12 -64 4 -20 2 -22 -13
-16 -10 4 -31 12 -48 18 -16 6 -52 25 -80 44 -65 43 -203 165 -204 180 -1 6
-5 13 -10 15 -12 5 -73 102 -113 183 -20 39 -51 117 -69 175 -19 58 -36 107
-39 110 -3 3 -6 14 -7 25 -1 11 -7 38 -13 60 -16 61 -19 74 -25 122 -2 24 -7
48 -9 51 -2 4 -7 30 -10 57 -3 28 -10 84 -15 125 -13 98 -13 110 1 85 6 -11
38 -60 71 -110z m1646 63 c59 -33 156 -95 181 -115 91 -73 156 -123 163 -123
4 0 7 -33 7 -73 l0 -73 -42 -22 c-68 -35 -108 -61 -167 -107 -56 -43 -77 -61
-139 -119 l-33 -31 7 69 c5 47 13 75 26 88 29 29 24 97 -10 135 -67 72 -192
40 -192 -50 0 -32 35 -107 50 -107 6 0 10 -24 10 -52 l0 -53 -87 86 c-96 93
-156 143 -246 204 -53 35 -58 42 -53 67 3 16 1 39 -3 52 -9 21 -5 25 47 46 71
29 336 162 377 189 40 26 39 26 104 -11z m-774 -155 c55 -23 112 -44 128 -48
24 -5 27 -10 27 -44 0 -22 3 -47 6 -55 5 -12 -8 -22 -49 -42 -49 -22 -59 -23
-81 -12 -36 19 -152 134 -200 198 -22 30 -43 57 -46 60 -9 7 -50 76 -50 83 0
3 37 -18 83 -46 45 -29 127 -71 182 -94z m2400 65 c0 -3 3 -10 8 -14 4 -4 7
-14 7 -22 0 -9 13 -45 29 -81 16 -36 44 -104 61 -151 18 -47 37 -96 43 -110 5
-14 11 -29 13 -35 2 -5 12 -37 23 -70 10 -33 16 -63 13 -67 -4 -3 -54 -18
-112 -32 -58 -14 -143 -39 -190 -55 -47 -16 -86 -28 -88 -26 -2 2 2 23 9 46
16 55 15 51 22 69 4 8 16 51 28 95 11 44 27 99 35 123 8 23 16 57 19 75 3 17
14 79 25 137 10 58 20 123 20 145 l1 40 17 -30 c9 -16 16 -33 17 -37z m-938
-60 c2 -23 5 -282 4 -305 -1 -14 -7 -23 -17 -23 -9 0 -30 -6 -47 -14 -54 -23
-146 -53 -278 -90 -70 -20 -135 -39 -145 -43 -33 -12 2 22 59 59 29 18 54 36
55 40 2 5 9 8 16 8 23 0 107 60 116 82 8 20 9 18 9 -14 1 -42 9 -68 22 -68 5
0 9 77 9 170 0 94 4 170 9 170 5 0 22 3 39 6 l30 6 1 -133 c2 -142 7 -179 24
-179 7 0 8 51 3 160 l-7 159 33 10 c47 13 65 13 65 -1z m-228 -90 c-1 -29 -3
-44 -6 -33 -2 11 -8 35 -13 53 -7 25 -5 32 6 32 10 0 14 -13 13 -52z m-1049
-148 c0 -5 -5 -10 -11 -10 -5 0 -7 5 -4 10 3 6 8 10 11 10 2 0 4 -4 4 -10z
m230 -195 c11 -13 7 -15 -21 -15 -19 0 -71 5 -117 12 -69 9 -82 14 -77 27 4 9
12 41 17 72 l11 57 88 -70 c48 -38 93 -75 99 -83z m-235 88 c-4 -32 -11 -62
-15 -66 -6 -7 -63 2 -117 18 -8 3 -8 14 2 47 12 41 14 43 46 40 19 -2 46 1 59
7 14 5 26 10 28 10 2 1 0 -25 -3 -56z m-163 -13 c-3 -23 -9 -29 -21 -26 -9 3
-34 8 -56 13 -22 4 -43 8 -47 9 -5 1 -18 2 -30 3 -39 2 -14 9 57 16 38 3 72 8
74 11 15 14 27 0 23 -26z m1453 -88 c0 -31 4 -64 9 -73 5 -9 5 -25 1 -35 -11
-26 -13 -87 -2 -101 4 -6 4 -13 0 -16 -5 -3 -8 -32 -6 -64 1 -32 2 -83 3 -113
4 -107 7 -102 -68 -132 -103 -41 -335 -127 -351 -130 -7 -2 -15 5 -16 15 -2
10 -10 39 -19 65 -8 26 -19 65 -25 87 -12 45 -99 328 -112 362 -9 25 -29 18
206 73 172 40 380 106 380 120 0 0 0 -26 0 -58z m-1625 -1 c78 -21 253 -58
305 -65 154 -21 234 -28 271 -23 38 4 44 2 40 -12 -3 -9 -16 -52 -30 -96 -26
-85 -46 -157 -52 -190 -2 -11 -10 -42 -18 -69 -8 -27 -13 -53 -10 -57 2 -4 0
-10 -6 -14 -5 -3 -10 -15 -10 -27 0 -11 -7 -43 -15 -72 l-15 -52 -48 7 c-40 5
-203 43 -392 91 -57 14 -60 16 -65 64 -9 78 -17 129 -21 136 -3 4 -7 47 -10
95 -2 48 -11 100 -19 116 -8 16 -12 34 -8 41 9 14 4 78 -8 93 -6 7 -6 13 0 17
5 3 7 16 4 27 -5 17 -2 20 13 16 10 -4 53 -15 94 -26z m-132 -658 c-10 -2 -26
-2 -35 0 -10 3 -2 5 17 5 19 0 27 -2 18 -5z"/>
<path d="M3385 11779 c-106 -58 -222 -133 -237 -153 -20 -29 11 -20 70 19 37
24 100 63 140 86 68 40 88 59 60 59 -7 0 -22 -5 -33 -11z"/>
<path d="M8370 11281 c0 -5 39 -31 88 -57 48 -27 110 -61 137 -76 48 -28 214
-108 221 -108 2 0 4 6 4 13 0 7 -33 29 -72 50 -40 20 -136 70 -213 112 -137
73 -165 84 -165 66z"/>
<path d="M2857 7478 c-9 -13 -22 -58 -31 -101 -12 -61 -22 -83 -43 -101 -21
-19 -32 -22 -46 -14 -13 6 -23 6 -33 -3 -8 -6 -14 -8 -14 -3 0 16 -57 -58 -80
-103 -12 -24 -24 -62 -27 -84 -3 -22 -10 -42 -14 -45 -5 -3 -9 -14 -9 -24 0
-11 -7 -34 -15 -52 -8 -18 -42 -121 -75 -228 -34 -107 -66 -206 -71 -220 -10
-23 -10 -24 8 -8 27 25 141 76 209 94 57 15 84 18 262 31 l84 6 -7 76 c-3 42
-8 92 -10 111 -2 19 -7 82 -10 140 -3 58 -7 130 -10 160 -3 30 -8 80 -10 110
-3 30 -13 85 -22 122 -13 52 -14 75 -6 102 9 28 8 38 -2 46 -11 9 -17 6 -28
-12z"/>
<path d="M5528 6953 c-21 -5 -23 -19 -6 -29 23 -14 262 -83 271 -77 4 2 2 11
-4 20 -31 37 -215 97 -261 86z"/>
<path d="M8068 6675 c-2 -1 -56 -5 -121 -9 -122 -6 -197 -20 -197 -36 0 -17
16 -17 180 -4 91 7 179 13 195 14 32 0 63 15 53 25 -6 6 -104 15 -110 10z"/>
<path d="M8295 6559 c-264 -16 -508 -52 -590 -88 -22 -10 -52 -21 -67 -24 -28
-7 -34 -21 -19 -45 6 -11 26 -10 107 3 54 9 107 18 117 20 9 2 15 -1 11 -6 -3
-5 -16 -9 -30 -9 -14 0 -54 -7 -90 -16 -65 -17 -90 -38 -63 -54 9 -6 5 -10
-17 -15 -77 -17 -97 -45 -38 -55 21 -4 29 -11 29 -25 0 -17 7 -20 40 -20 22
-1 51 -7 64 -14 18 -10 57 -12 170 -6 80 4 423 7 761 7 525 -1 618 1 638 14
23 15 29 53 11 71 -8 8 -8 17 0 31 8 16 6 24 -14 42 -23 21 -29 54 -15 75 4 6
8 27 8 48 1 30 -3 40 -21 48 -52 23 -711 35 -992 18z m-608 -285 c-3 -3 -12
-4 -19 -1 -8 3 -5 6 6 6 11 1 17 -2 13 -5z"/>
<path d="M11486 11788 c-16 -62 -32 -118 -37 -124 -5 -6 -11 -35 -15 -65 -5
-43 -3 -57 10 -68 21 -18 44 -7 57 26 l10 27 63 -63 c67 -66 98 -76 104 -32 3
18 -14 41 -76 102 l-79 79 8 88 c11 127 11 142 -4 142 -8 0 -23 -41 -41 -112z"/>
<path d="M11675 11791 c-9 -16 12 -49 36 -56 29 -10 36 2 18 33 -16 28 -43 40
-54 23z"/>
<path d="M11605 11760 c-17 -28 29 -78 61 -66 11 4 12 10 5 24 -14 27 -58 54
-66 42z"/>
<path d="M11560 11396 c0 -51 -15 -81 -52 -105 -56 -35 -70 -49 -64 -60 4 -6
24 -2 52 10 25 12 48 18 52 15 3 -4 5 -28 3 -54 -2 -44 -7 -52 -80 -127 -43
-44 -84 -91 -90 -104 -25 -47 6 -38 84 25 43 35 82 64 85 64 3 0 6 -24 7 -52
4 -137 26 -209 55 -180 9 10 13 50 13 152 l0 139 55 41 c60 44 80 66 80 88 0
22 -61 9 -107 -22 l-38 -26 -3 42 c-3 34 1 46 17 59 28 23 26 39 -3 39 -26 0
-36 16 -36 61 0 19 -5 29 -15 29 -10 0 -15 -10 -15 -34z"/>
<path d="M10604 7338 c7 -153 18 -242 52 -438 8 -47 17 -96 20 -110 6 -39 35
-221 40 -260 3 -19 10 -57 16 -85 7 -27 13 -57 14 -65 5 -39 25 -148 32 -175
6 -22 20 -36 52 -52 48 -24 64 -28 56 -14 -5 8 -60 260 -72 326 -2 17 -11 66
-19 110 -8 44 -17 96 -20 115 -3 19 -10 58 -15 85 -17 84 -59 308 -65 345 -3
19 -10 55 -15 80 -5 25 -17 88 -26 140 -19 110 -29 140 -45 140 -9 0 -10 -36
-5 -142z"/>
<path d="M10873 5951 c-42 -38 -36 -57 39 -122 39 -34 58 -46 55 -33 -4 10
-11 42 -17 69 -13 61 -32 115 -40 115 -3 0 -20 -13 -37 -29z"/>
<path d="M11216 568 c-2 -7 -14 -76 -26 -153 -12 -77 -30 -180 -40 -230 -18
-89 -18 -105 1 -105 44 0 123 483 82 497 -7 3 -15 -1 -17 -9z"/>
</g>
</svg>
