<svg width="563.9000244140625" height="71.8010025024414" viewBox="0 0 563.9 71.801" xmlns="http://www.w3.org/2000/svg"><g id="svgGroup" stroke-linecap="round" fill-rule="evenodd" font-size="9pt" stroke="#000" stroke-width="0.25mm" fill="#000" style="stroke:#000;stroke-width:0.25mm;fill:#000"><path d="M 0 54.5 L 2 54.5 Q 2.5 58 4.55 61.5 Q 6.513 64.852 10.676 67.286 A 24.948 24.948 0 0 0 11.05 67.5 A 17.93 17.93 0 0 0 15.606 69.253 Q 17.714 69.767 20.182 69.927 A 35.706 35.706 0 0 0 22.5 70 Q 28.1 70 32.4 67.85 A 17.897 17.897 0 0 0 36.354 65.202 A 14.933 14.933 0 0 0 39 62.1 Q 41.3 58.5 41.3 54.1 Q 41.3 49.745 39.782 46.761 A 10.688 10.688 0 0 0 38.7 45.05 Q 36.1 41.7 32.25 40.1 Q 28.485 38.536 22.187 36.876 A 155.399 155.399 0 0 0 21.9 36.8 A 119.679 119.679 0 0 1 17.914 35.675 Q 13.819 34.438 11 33.2 A 17.453 17.453 0 0 1 4.053 27.654 A 18.872 18.872 0 0 1 4.05 27.65 Q 1.601 24.428 1.256 19.248 A 26.349 26.349 0 0 1 1.2 17.5 Q 1.2 12.9 3.75 8.85 Q 6.3 4.8 11.05 2.4 Q 15.8 0 21.9 0 Q 27.991 0 32.441 2.124 A 18.475 18.475 0 0 1 32.6 2.2 Q 37.1 4.4 39.65 7.75 A 19.107 19.107 0 0 1 42.061 11.852 A 16.391 16.391 0 0 1 43 14.8 L 41 14.8 Q 40.3 11.9 38.1 8.9 A 14.904 14.904 0 0 0 35.024 5.826 A 20.742 20.742 0 0 0 31.8 3.85 A 18.596 18.596 0 0 0 26.984 2.255 Q 24.63 1.8 21.9 1.8 A 23.234 23.234 0 0 0 15.572 2.64 A 20.689 20.689 0 0 0 12.55 3.75 A 17.42 17.42 0 0 0 7.558 7.14 A 16.165 16.165 0 0 0 5.75 9.25 A 13.611 13.611 0 0 0 3.216 16.772 A 16.846 16.846 0 0 0 3.2 17.5 A 20.59 20.59 0 0 0 3.528 21.288 Q 3.924 23.405 4.8 25.096 A 11.074 11.074 0 0 0 5.85 26.75 Q 8.5 30.2 12.4 31.85 A 49.099 49.099 0 0 0 15.388 32.991 Q 16.961 33.538 18.814 34.09 A 122.272 122.272 0 0 0 22.8 35.2 A 125.613 125.613 0 0 1 26.781 36.32 Q 30.801 37.528 33.561 38.712 A 37.591 37.591 0 0 1 33.65 38.75 Q 37.7 40.5 40.5 44.15 A 12.578 12.578 0 0 1 42.578 48.385 Q 43.074 50.115 43.229 52.168 A 25.658 25.658 0 0 1 43.3 54.1 A 16.659 16.659 0 0 1 41.37 61.829 A 19.883 19.883 0 0 1 40.95 62.6 Q 38.6 66.7 33.9 69.25 Q 29.333 71.728 22.878 71.798 A 34.765 34.765 0 0 1 22.5 71.8 A 31.542 31.542 0 0 1 16.787 71.308 A 23.149 23.149 0 0 1 10.85 69.4 Q 5.9 67 3.2 63.05 Q 0.5 59.1 0 54.5 Z M 120.2 2.5 L 87.8 2.5 L 87.8 35 L 117.2 35 L 117.2 36.8 L 87.8 36.8 L 87.8 69.3 L 120.2 69.3 L 120.2 71.1 L 85.8 71.1 L 85.8 0.7 L 120.2 0.7 L 120.2 2.5 Z M 356.5 2.5 L 324.1 2.5 L 324.1 35 L 353.5 35 L 353.5 36.8 L 324.1 36.8 L 324.1 69.3 L 356.5 69.3 L 356.5 71.1 L 322.1 71.1 L 322.1 0.7 L 356.5 0.7 L 356.5 2.5 Z M 563.9 2.5 L 531.5 2.5 L 531.5 35 L 560.9 35 L 560.9 36.8 L 531.5 36.8 L 531.5 69.3 L 563.9 69.3 L 563.9 71.1 L 529.5 71.1 L 529.5 0.7 L 563.9 0.7 L 563.9 2.5 Z M 279.4 0.7 L 281.6 0.7 L 254.6 71.1 L 252.6 71.1 L 225.7 0.7 L 228 0.7 L 253.6 68.1 L 279.4 0.7 Z M 440 71.1 L 437.5 71.1 L 418.7 40.4 L 416.8 40.4 L 401 40.4 L 401 71.1 L 399 71.1 L 399 0.7 L 416.6 0.7 A 40.368 40.368 0 0 1 422.963 1.167 Q 426.285 1.699 428.928 2.835 A 16.833 16.833 0 0 1 433.85 6 A 17.493 17.493 0 0 1 439.1 15.88 A 25.491 25.491 0 0 1 439.5 20.5 A 24.409 24.409 0 0 1 438.839 26.341 A 17.039 17.039 0 0 1 434.7 34.1 Q 430.153 38.931 421.927 40.083 A 34.288 34.288 0 0 1 421 40.2 L 440 71.1 Z M 164.7 0.7 L 164.7 69.3 L 191.7 69.3 L 191.7 71.1 L 162.7 71.1 L 162.7 0.7 L 164.7 0.7 Z M 481.5 0.7 L 483.5 0.7 L 483.5 71.1 L 481.5 71.1 L 481.5 0.7 Z M 401 38.5 L 416.8 38.5 A 34.469 34.469 0 0 0 422.598 38.045 Q 428.669 37.007 432.25 33.6 A 16.285 16.285 0 0 0 437.154 23.93 A 23.014 23.014 0 0 0 437.4 20.5 A 21.605 21.605 0 0 0 436.181 12.926 Q 432.365 2.7 416.6 2.7 L 401 2.7 L 401 38.5 Z" vector-effect="non-scaling-stroke" class="svg-elem-1"></path></g></svg>